<?xml version="1.0" encoding="UTF-8"?>
<svg version="1.1" xmlns="http://www.w3.org/2000/svg" width="512" height="512">
<path d="M0 0 C1.08867709 -0.00226556 2.17735418 -0.00453111 3.29902148 -0.00686532 C6.93599184 -0.01318013 10.57292468 -0.01237757 14.2098999 -0.0115509 C16.82211861 -0.01454397 19.43433688 -0.01794684 22.04655457 -0.02172852 C28.39956812 -0.03001667 34.7525724 -0.03278253 41.10559091 -0.03334089 C46.27263272 -0.03381694 51.43967149 -0.03587611 56.60671234 -0.03904152 C71.27378083 -0.0478432 85.94084202 -0.05246167 100.60791317 -0.05171105 C101.39776508 -0.05167109 102.18761699 -0.05163113 103.00140381 -0.05158997 C103.79222622 -0.05154909 104.58304862 -0.0515082 105.39783534 -0.05146609 C118.2091213 -0.05105979 131.02037784 -0.06062655 143.83165529 -0.07472833 C157.00339314 -0.08911185 170.17511666 -0.09599743 183.34686255 -0.09513456 C190.73485797 -0.09480326 198.12282254 -0.09752064 205.51081085 -0.10831261 C212.46130492 -0.11840087 219.41173299 -0.11806209 226.3622303 -0.11079597 C228.90826322 -0.10975206 231.45430022 -0.11210153 234.00032616 -0.11815643 C237.48588896 -0.1259066 240.97122889 -0.12121144 244.45678711 -0.11352539 C245.95449532 -0.12124074 245.95449532 -0.12124074 247.48246026 -0.12911195 C266.37650565 -0.03755503 281.80691895 5.54196995 295.73236084 18.44621277 C305.03798954 28.30839821 312.09324192 42.30972173 312.1137886 56.04144382 C312.11762975 57.00889926 312.12147089 57.97635469 312.12542844 58.97312695 C312.12456196 60.02816998 312.12369547 61.08321302 312.12280273 62.17022705 C312.12725942 63.86065106 312.12725942 63.86065106 312.13180614 65.58522505 C312.14049276 69.36970565 312.14200137 73.15415462 312.14349365 76.93864441 C312.14758455 79.64894294 312.15312608 82.35923814 312.15853882 85.0695343 C312.1721104 92.43964197 312.17814531 99.80974418 312.18254948 107.17986226 C312.18531446 111.78499355 312.18955233 116.39012274 312.19405365 120.99525261 C312.20624586 133.75402348 312.21654457 146.51279268 312.21992874 159.27156925 C312.22014831 160.08790322 312.22036787 160.90423719 312.22059409 161.74530854 C312.22081237 162.56356313 312.22103065 163.38181771 312.22125554 164.22486788 C312.221699 165.88287803 312.22214557 167.54088817 312.22259521 169.19889832 C312.22281664 170.02132337 312.22303807 170.84374843 312.22326621 171.69109546 C312.22721129 185.0069739 312.24465666 198.32279751 312.26795474 211.63865478 C312.29170015 225.32106334 312.30413208 239.00344443 312.30529666 252.68587393 C312.30621174 260.36344891 312.31192176 268.04095251 312.33011627 275.71850777 C312.34556053 282.25846287 312.35061241 288.79832451 312.34237817 295.33829439 C312.33848655 298.67149214 312.3409787 302.00434985 312.35343552 305.33754921 C312.3661806 308.96129719 312.36026371 312.58456784 312.34985352 316.20831299 C312.36193812 317.76745496 312.36193812 317.76745496 312.37426686 319.35809475 C312.26096774 336.30539059 305.79891763 351.02673369 293.98236084 363.13371277 C281.55707415 374.18414063 267.82593478 379.34605107 251.35736084 379.54777527 C249.87610718 379.57682449 249.87610718 379.57682449 248.3649292 379.60646057 C245.23749191 379.66582936 242.11001695 379.71246989 238.98236084 379.75871277 C236.85083513 379.79693189 234.71932422 379.83598586 232.58782959 379.87590027 C227.38613885 379.97149528 222.18435762 380.05666534 216.98236084 380.13371277 C215.51883646 385.03159238 214.66188437 389.25850078 214.60736084 394.38371277 C214.57900146 395.58511902 214.55064209 396.78652527 214.52142334 398.02433777 C214.96428509 403.42464174 214.96428509 403.42464174 218.98236084 413.13371277 C253.13736084 413.62871277 253.13736084 413.62871277 287.98236084 414.13371277 C288.31236084 412.81371277 288.64236084 411.49371277 288.98236084 410.13371277 C291.51389409 407.60217952 292.39330694 407.87692905 295.90008545 407.85905457 C296.92552963 407.84952255 297.95097382 407.83999054 299.00749207 407.83016968 C300.67921227 407.83153679 300.67921227 407.83153679 302.38470459 407.83293152 C304.1059127 407.82650383 304.1059127 407.82650383 305.8618927 407.81994629 C308.29893331 407.81419112 310.7359911 407.81371141 313.17303467 407.81803894 C316.87345514 407.82117346 320.57305644 407.79784273 324.27337646 407.77238464 C326.64381817 407.77010901 329.01426201 407.76940938 331.38470459 407.77043152 C333.02909767 407.7566169 333.02909767 407.7566169 334.70671082 407.74252319 C347.7363791 407.81953783 359.49894854 411.42342815 369.28704834 420.27824402 C379.00271818 430.91175364 381.77253434 441.78376109 381.33001709 455.74699402 C380.67373877 466.7484769 375.20522738 476.42522471 367.23236084 483.88371277 C359.77971209 489.96721961 350.78758911 494.25310672 340.98236084 494.13371277 C339.34686279 492.99894714 339.34686279 492.99894714 337.98236084 491.13371277 C337.59417725 488.45402527 337.59417725 488.45402527 337.58392334 485.25871277 C337.58005615 484.10886902 337.57618896 482.95902527 337.57220459 481.77433777 C337.58960693 479.97222839 337.58960693 479.97222839 337.60736084 478.13371277 C337.59575928 476.93230652 337.58415771 475.73090027 337.57220459 474.49308777 C337.57607178 473.34324402 337.57993896 472.19340027 337.58392334 471.00871277 C337.58730713 469.95425964 337.59069092 468.89980652 337.59417725 467.81340027 C337.98236084 465.13371277 337.98236084 465.13371277 339.31585693 463.35636902 C340.98236084 462.13371277 340.98236084 462.13371277 344.04486084 460.69621277 C346.95237642 459.39323503 346.95237642 459.39323503 348.35736084 457.44621277 C349.49886618 453.22264301 349.49886618 449.04478253 348.35736084 444.82121277 C345.77637651 441.65364109 342.56936515 440.31485211 338.53109741 439.85392761 C335.53901965 439.74061753 332.55860491 439.71887438 329.56439209 439.72746277 C327.92309578 439.7112085 327.92309578 439.7112085 326.24864197 439.69462585 C321.57960209 439.64880419 316.91061873 439.63723904 312.24139404 439.6224823 C308.82802301 439.60683442 305.41512268 439.57385396 302.00189209 439.53996277 C300.41281792 439.54449463 300.41281792 439.54449463 298.79164124 439.54911804 C297.31947395 439.53395142 297.31947395 439.53395142 295.81756592 439.51847839 C294.95408035 439.51642395 294.09059479 439.51436951 293.20094299 439.51225281 C290.98236084 439.13371277 290.98236084 439.13371277 289.18016052 437.98466492 C287.98236084 436.13371277 287.98236084 436.13371277 287.98236084 430.13371277 C265.21236084 430.13371277 242.44236084 430.13371277 218.98236084 430.13371277 C214.79682347 442.69032488 212.56068899 454.14439619 217.75970459 466.70402527 C219.29050048 469.74605417 221.11120584 472.52019642 223.00579834 475.34465027 C224.45225059 477.99455078 224.41207321 480.1973449 223.98236084 483.13371277 C223.65236084 483.46371277 223.32236084 483.79371277 222.98236084 484.13371277 C212.57171187 484.08151461 202.11671821 481.75674178 191.89324951 479.9818573 C189.98394674 479.65429517 188.0745664 479.32718495 186.16511536 479.00048828 C180.99153347 478.11398122 175.81906781 477.22111264 170.64678741 476.32704782 C165.15960375 475.37964903 159.67142529 474.43804685 154.18336487 473.4957428 C144.91485135 471.90351291 135.64698877 470.30754131 126.37957764 468.70890808 C116.99820947 467.09062062 107.61642178 465.47480265 98.23406982 463.86222839 C96.52166054 463.56790684 96.52166054 463.56790684 94.77465713 463.2676394 C92.47718089 462.87277965 90.17970281 462.47793056 87.88222289 462.08309221 C73.26242173 459.57054229 58.64290198 457.05644465 44.02578735 454.52830505 C42.94496144 454.34138761 41.86413552 454.15447016 40.7505573 453.96188855 C32.09788706 452.46544304 32.09788706 452.46544304 27.9282167 451.74401903 C14.93561652 449.49667674 1.9391196 447.2748288 -11.06362259 445.08695531 C-15.56600168 444.32780384 -20.06713783 443.56132496 -24.56811994 442.79393899 C-27.9333612 442.22086474 -31.29927667 441.65291015 -34.66758156 441.09810257 C-38.2301674 440.50927029 -41.78945336 439.90347137 -45.34844971 439.29338074 C-46.86747548 439.04985933 -46.86747548 439.04985933 -48.41718864 438.8014183 C-53.89749011 437.8413229 -57.70564468 436.71556595 -62.01763916 433.13371277 C-62.34763916 432.47371277 -62.67763916 431.81371277 -63.01763916 431.13371277 C-63.81055359 431.12784653 -64.60346802 431.12198029 -65.42041016 431.11593628 C-72.89517789 431.0580175 -80.36961197 430.98594597 -87.84408188 430.89799786 C-91.68674368 430.85328195 -95.52929916 430.81402879 -99.37213135 430.78727722 C-103.08113546 430.76125599 -106.78973072 430.72086269 -110.49848175 430.6705265 C-111.91299603 430.65384965 -113.32758105 430.64234044 -114.74217987 430.63609886 C-116.7244131 430.62646764 -118.70651757 430.59671159 -120.6885376 430.56608582 C-121.81660828 430.55498276 -122.94467896 430.5438797 -124.10693359 430.53244019 C-127.32231501 430.09197628 -128.72118306 429.39128038 -131.01763916 427.13371277 C-131.51373291 424.97746277 -131.51373291 424.97746277 -131.45513916 422.63371277 C-131.4538501 421.86027527 -131.45256104 421.08683777 -131.45123291 420.28996277 C-130.91372011 417.61692612 -130.19144495 416.75051163 -128.01763916 415.13371277 C-124.62641843 414.00633813 -121.42705789 414.01296192 -117.87213135 414.02018738 C-116.63114685 414.02026291 -115.39016235 414.02033844 -114.11157227 414.02041626 C-112.76255249 414.02552246 -111.41353312 414.03073845 -110.06451416 414.03605652 C-108.6801763 414.03792252 -107.29583778 414.03934557 -105.91149902 414.04034424 C-102.27502608 414.04415504 -98.63859334 414.05397302 -95.00213623 414.06504822 C-91.2885594 414.07529327 -87.57497606 414.07984848 -83.86138916 414.08488464 C-76.58012087 414.09559661 -69.29888566 414.11265573 -62.01763916 414.13371277 C-61.75209229 413.50593933 -61.48654541 412.87816589 -61.21295166 412.23136902 C-59.63334248 409.45930978 -57.73939837 408.85766291 -54.79107666 407.86027527 C-48.61519847 406.24236915 -42.30649183 405.20983926 -36.01763916 404.13371277 C-36.42756104 403.68640808 -36.83748291 403.23910339 -37.25982666 402.77824402 C-37.79865479 402.17367371 -38.33748291 401.56910339 -38.89263916 400.94621277 C-39.42631104 400.35453308 -39.95998291 399.76285339 -40.50982666 399.15324402 C-43.59968461 395.01475552 -44.2443596 391.40238039 -44.08013916 386.30949402 C-43.46034034 374.05074029 -43.46034034 374.05074029 -47.02154541 362.69230652 C-49.54647814 360.34815036 -49.54647814 360.34815036 -52.31060791 358.31340027 C-61.52610331 350.89313125 -65.4337791 337.434741 -67.01763916 326.13371277 C-67.72826367 317.31210538 -67.56570256 308.44532562 -67.53521729 299.60246277 C-67.54064612 296.94627492 -67.5476302 294.2901315 -67.55645752 291.63395691 C-67.57413125 285.2031009 -67.570453 278.77243291 -67.55880696 272.3415699 C-67.54972859 267.10942686 -67.54856753 261.87733606 -67.55290222 256.64518738 C-67.55351515 255.89707653 -67.55412809 255.14896567 -67.55475959 254.3781848 C-67.55603865 252.85783703 -67.55733551 251.33748927 -67.55864996 249.81714153 C-67.57002309 235.60131916 -67.55699357 221.38560041 -67.53544849 207.16979504 C-67.51758047 195.00406995 -67.5206855 182.8384976 -67.53912354 170.67277527 C-67.56058824 156.50361371 -67.56892476 142.33454268 -67.55667448 128.16536713 C-67.55540045 126.65099082 -67.55414296 125.1366145 -67.55290222 123.62223816 C-67.55228512 122.87737136 -67.55166802 122.13250457 -67.55103222 121.36506605 C-67.54759606 116.14656853 -67.55336996 110.92812903 -67.56282043 105.7096405 C-67.57410433 99.33946747 -67.57086751 92.96949127 -67.54969746 86.59934044 C-67.53927196 83.35669285 -67.5371152 80.11443513 -67.54829407 76.8717804 C-67.61898624 54.27118369 -65.81991005 34.49443804 -49.39654541 17.34855652 C-35.28613117 4.2112743 -18.80038645 -0.0289006 0 0 Z M90.98236084 379.13371277 C90.98236084 380.45371277 90.98236084 381.77371277 90.98236084 383.13371277 C93.37847723 382.82327253 95.77423919 382.51042919 98.16986084 382.19621277 C98.843396 382.10920105 99.51693115 382.02218933 100.21087646 381.93254089 C103.8331725 381.455458 107.41039669 380.90359242 110.98236084 380.13371277 C110.98236084 379.80371277 110.98236084 379.47371277 110.98236084 379.13371277 C104.38236084 379.13371277 97.78236084 379.13371277 90.98236084 379.13371277 Z " fill="#407093" transform="translate(131.01763916015625,8.866287231445313)"/>
<path d="M0 0 C1.08867709 -0.00226556 2.17735418 -0.00453111 3.29902148 -0.00686532 C6.93599184 -0.01318013 10.57292468 -0.01237757 14.2098999 -0.0115509 C16.82211861 -0.01454397 19.43433688 -0.01794684 22.04655457 -0.02172852 C28.39956812 -0.03001667 34.7525724 -0.03278253 41.10559091 -0.03334089 C46.27263272 -0.03381694 51.43967149 -0.03587611 56.60671234 -0.03904152 C71.27378083 -0.0478432 85.94084202 -0.05246167 100.60791317 -0.05171105 C101.39776508 -0.05167109 102.18761699 -0.05163113 103.00140381 -0.05158997 C103.79222622 -0.05154909 104.58304862 -0.0515082 105.39783534 -0.05146609 C118.2091213 -0.05105979 131.02037784 -0.06062655 143.83165529 -0.07472833 C157.00339314 -0.08911185 170.17511666 -0.09599743 183.34686255 -0.09513456 C190.73485797 -0.09480326 198.12282254 -0.09752064 205.51081085 -0.10831261 C212.46130492 -0.11840087 219.41173299 -0.11806209 226.3622303 -0.11079597 C228.90826322 -0.10975206 231.45430022 -0.11210153 234.00032616 -0.11815643 C237.48588896 -0.1259066 240.97122889 -0.12121144 244.45678711 -0.11352539 C245.95449532 -0.12124074 245.95449532 -0.12124074 247.48246026 -0.12911195 C266.37650565 -0.03755503 281.80691895 5.54196995 295.73236084 18.44621277 C305.03798954 28.30839821 312.09324192 42.30972173 312.1137886 56.04144382 C312.11762975 57.00889926 312.12147089 57.97635469 312.12542844 58.97312695 C312.12456196 60.02816998 312.12369547 61.08321302 312.12280273 62.17022705 C312.12725942 63.86065106 312.12725942 63.86065106 312.13180614 65.58522505 C312.14049276 69.36970565 312.14200137 73.15415462 312.14349365 76.93864441 C312.14758455 79.64894294 312.15312608 82.35923814 312.15853882 85.0695343 C312.1721104 92.43964197 312.17814531 99.80974418 312.18254948 107.17986226 C312.18531446 111.78499355 312.18955233 116.39012274 312.19405365 120.99525261 C312.20624586 133.75402348 312.21654457 146.51279268 312.21992874 159.27156925 C312.22014831 160.08790322 312.22036787 160.90423719 312.22059409 161.74530854 C312.22081237 162.56356313 312.22103065 163.38181771 312.22125554 164.22486788 C312.221699 165.88287803 312.22214557 167.54088817 312.22259521 169.19889832 C312.22281664 170.02132337 312.22303807 170.84374843 312.22326621 171.69109546 C312.22721129 185.0069739 312.24465666 198.32279751 312.26795474 211.63865478 C312.29170015 225.32106334 312.30413208 239.00344443 312.30529666 252.68587393 C312.30621174 260.36344891 312.31192176 268.04095251 312.33011627 275.71850777 C312.34556053 282.25846287 312.35061241 288.79832451 312.34237817 295.33829439 C312.33848655 298.67149214 312.3409787 302.00434985 312.35343552 305.33754921 C312.3661806 308.96129719 312.36026371 312.58456784 312.34985352 316.20831299 C312.36193812 317.76745496 312.36193812 317.76745496 312.37426686 319.35809475 C312.26096774 336.30539059 305.79891763 351.02673369 293.98236084 363.13371277 C281.55707415 374.18414063 267.82593478 379.34605107 251.35736084 379.54777527 C249.87610718 379.57682449 249.87610718 379.57682449 248.3649292 379.60646057 C245.23749191 379.66582936 242.11001695 379.71246989 238.98236084 379.75871277 C236.85083513 379.79693189 234.71932422 379.83598586 232.58782959 379.87590027 C227.38613885 379.97149528 222.18435762 380.05666534 216.98236084 380.13371277 C215.51883646 385.03159238 214.66188437 389.25850078 214.60736084 394.38371277 C214.57900146 395.58511902 214.55064209 396.78652527 214.52142334 398.02433777 C214.96428509 403.42464174 214.96428509 403.42464174 218.98236084 413.13371277 C253.13736084 413.62871277 253.13736084 413.62871277 287.98236084 414.13371277 C288.31236084 412.81371277 288.64236084 411.49371277 288.98236084 410.13371277 C291.51389409 407.60217952 292.39330694 407.87692905 295.90008545 407.85905457 C296.92552963 407.84952255 297.95097382 407.83999054 299.00749207 407.83016968 C300.67921227 407.83153679 300.67921227 407.83153679 302.38470459 407.83293152 C304.1059127 407.82650383 304.1059127 407.82650383 305.8618927 407.81994629 C308.29893331 407.81419112 310.7359911 407.81371141 313.17303467 407.81803894 C316.87345514 407.82117346 320.57305644 407.79784273 324.27337646 407.77238464 C326.64381817 407.77010901 329.01426201 407.76940938 331.38470459 407.77043152 C333.02909767 407.7566169 333.02909767 407.7566169 334.70671082 407.74252319 C347.7363791 407.81953783 359.49894854 411.42342815 369.28704834 420.27824402 C379.00271818 430.91175364 381.77253434 441.78376109 381.33001709 455.74699402 C380.67373877 466.7484769 375.20522738 476.42522471 367.23236084 483.88371277 C359.77971209 489.96721961 350.78758911 494.25310672 340.98236084 494.13371277 C339.34686279 492.99894714 339.34686279 492.99894714 337.98236084 491.13371277 C337.59417725 488.45402527 337.59417725 488.45402527 337.58392334 485.25871277 C337.58005615 484.10886902 337.57618896 482.95902527 337.57220459 481.77433777 C337.58960693 479.97222839 337.58960693 479.97222839 337.60736084 478.13371277 C337.59575928 476.93230652 337.58415771 475.73090027 337.57220459 474.49308777 C337.57607178 473.34324402 337.57993896 472.19340027 337.58392334 471.00871277 C337.58730713 469.95425964 337.59069092 468.89980652 337.59417725 467.81340027 C337.98236084 465.13371277 337.98236084 465.13371277 339.31585693 463.35636902 C340.98236084 462.13371277 340.98236084 462.13371277 344.04486084 460.69621277 C346.95237642 459.39323503 346.95237642 459.39323503 348.35736084 457.44621277 C349.49886618 453.22264301 349.49886618 449.04478253 348.35736084 444.82121277 C345.77637651 441.65364109 342.56936515 440.31485211 338.53109741 439.85392761 C335.53901965 439.74061753 332.55860491 439.71887438 329.56439209 439.72746277 C327.92309578 439.7112085 327.92309578 439.7112085 326.24864197 439.69462585 C321.57960209 439.64880419 316.91061873 439.63723904 312.24139404 439.6224823 C308.82802301 439.60683442 305.41512268 439.57385396 302.00189209 439.53996277 C300.41281792 439.54449463 300.41281792 439.54449463 298.79164124 439.54911804 C297.31947395 439.53395142 297.31947395 439.53395142 295.81756592 439.51847839 C294.95408035 439.51642395 294.09059479 439.51436951 293.20094299 439.51225281 C290.98236084 439.13371277 290.98236084 439.13371277 289.18016052 437.98466492 C287.98236084 436.13371277 287.98236084 436.13371277 287.98236084 430.13371277 C265.21236084 430.13371277 242.44236084 430.13371277 218.98236084 430.13371277 C214.79682347 442.69032488 212.56068899 454.14439619 217.75970459 466.70402527 C219.29050048 469.74605417 221.11120584 472.52019642 223.00579834 475.34465027 C224.45225059 477.99455078 224.41207321 480.1973449 223.98236084 483.13371277 C223.65236084 483.46371277 223.32236084 483.79371277 222.98236084 484.13371277 C212.57171187 484.08151461 202.11671821 481.75674178 191.89324951 479.9818573 C189.98394674 479.65429517 188.0745664 479.32718495 186.16511536 479.00048828 C180.99153347 478.11398122 175.81906781 477.22111264 170.64678741 476.32704782 C165.15960375 475.37964903 159.67142529 474.43804685 154.18336487 473.4957428 C144.91485135 471.90351291 135.64698877 470.30754131 126.37957764 468.70890808 C116.99820947 467.09062062 107.61642178 465.47480265 98.23406982 463.86222839 C96.52166054 463.56790684 96.52166054 463.56790684 94.77465713 463.2676394 C92.47718089 462.87277965 90.17970281 462.47793056 87.88222289 462.08309221 C73.26242173 459.57054229 58.64290198 457.05644465 44.02578735 454.52830505 C42.94496144 454.34138761 41.86413552 454.15447016 40.7505573 453.96188855 C32.09788706 452.46544304 32.09788706 452.46544304 27.9282167 451.74401903 C14.93561652 449.49667674 1.9391196 447.2748288 -11.06362259 445.08695531 C-15.56600168 444.32780384 -20.06713783 443.56132496 -24.56811994 442.79393899 C-27.9333612 442.22086474 -31.29927667 441.65291015 -34.66758156 441.09810257 C-38.2301674 440.50927029 -41.78945336 439.90347137 -45.34844971 439.29338074 C-46.86747548 439.04985933 -46.86747548 439.04985933 -48.41718864 438.8014183 C-53.89749011 437.8413229 -57.70564468 436.71556595 -62.01763916 433.13371277 C-62.34763916 432.47371277 -62.67763916 431.81371277 -63.01763916 431.13371277 C-63.81055359 431.12784653 -64.60346802 431.12198029 -65.42041016 431.11593628 C-72.89517789 431.0580175 -80.36961197 430.98594597 -87.84408188 430.89799786 C-91.68674368 430.85328195 -95.52929916 430.81402879 -99.37213135 430.78727722 C-103.08113546 430.76125599 -106.78973072 430.72086269 -110.49848175 430.6705265 C-111.91299603 430.65384965 -113.32758105 430.64234044 -114.74217987 430.63609886 C-116.7244131 430.62646764 -118.70651757 430.59671159 -120.6885376 430.56608582 C-121.81660828 430.55498276 -122.94467896 430.5438797 -124.10693359 430.53244019 C-127.32231501 430.09197628 -128.72118306 429.39128038 -131.01763916 427.13371277 C-131.51373291 424.97746277 -131.51373291 424.97746277 -131.45513916 422.63371277 C-131.4538501 421.86027527 -131.45256104 421.08683777 -131.45123291 420.28996277 C-130.91372011 417.61692612 -130.19144495 416.75051163 -128.01763916 415.13371277 C-124.62641843 414.00633813 -121.42705789 414.01296192 -117.87213135 414.02018738 C-116.63114685 414.02026291 -115.39016235 414.02033844 -114.11157227 414.02041626 C-112.76255249 414.02552246 -111.41353312 414.03073845 -110.06451416 414.03605652 C-108.6801763 414.03792252 -107.29583778 414.03934557 -105.91149902 414.04034424 C-102.27502608 414.04415504 -98.63859334 414.05397302 -95.00213623 414.06504822 C-91.2885594 414.07529327 -87.57497606 414.07984848 -83.86138916 414.08488464 C-76.58012087 414.09559661 -69.29888566 414.11265573 -62.01763916 414.13371277 C-61.75892532 413.5073996 -61.50021149 412.88108643 -61.23365784 412.23579407 C-59.22339522 408.76073605 -55.69572031 408.13207816 -52.01763916 407.13371277 C-48.47019278 406.36782753 -44.90695188 405.80325012 -41.31842041 405.26652527 C-40.29696426 405.10651031 -39.27550812 404.94649536 -38.22309875 404.78163147 C-34.92655688 404.26652972 -31.62839331 403.76272157 -28.33013916 403.25871277 C-24.94055965 402.73117458 -21.5514902 402.20045015 -18.16247559 401.66929626 C-15.92331421 401.31836323 -13.68401608 400.96830163 -11.44458008 400.61912537 C1.3921918 398.61319286 14.18710719 396.38711269 26.98236084 394.13371277 C26.33978333 394.13228775 25.69720581 394.13086273 25.03515625 394.12939453 C18.35143258 394.10971915 11.66862484 394.05549171 4.98529053 393.98112488 C2.49056569 393.95791738 -0.00425751 393.94354276 -2.49908447 393.93815613 C-6.08401993 393.9288872 -9.66740233 393.88793809 -13.25201416 393.84074402 C-14.36880554 393.84467667 -15.48559692 393.84860931 -16.63623047 393.85266113 C-17.67700745 393.83301804 -18.71778442 393.81337494 -19.7901001 393.7931366 C-21.16243805 393.78314384 -21.16243805 393.78314384 -22.5625 393.77294922 C-26.12243799 392.84605996 -27.04745439 391.1961285 -29.01763916 388.13371277 C-29.52379704 384.73693085 -29.52379704 384.73693085 -29.53230286 380.77055359 C-29.53924838 380.03885342 -29.54619391 379.30715325 -29.55334991 378.55328035 C-29.57161665 376.10647196 -29.56135714 373.66063351 -29.55108643 371.21379089 C-29.55814505 369.45763422 -29.56688983 367.70148364 -29.57719421 365.94534302 C-29.59970308 361.17882684 -29.59674519 356.41264247 -29.58787274 351.64609337 C-29.58276453 347.66728029 -29.59005397 343.68852965 -29.59734482 339.709723 C-29.6143482 330.3244675 -29.61077309 320.93937459 -29.59405518 311.55412292 C-29.57712717 301.86948475 -29.59297674 292.18529708 -29.62527806 282.5007081 C-29.65195935 274.18633897 -29.65925409 265.87211019 -29.65076298 257.55770254 C-29.64583025 252.59156896 -29.64806825 247.62570656 -29.66855049 242.65960693 C-29.68688508 237.99072412 -29.6809763 233.32249043 -29.65635109 228.65364265 C-29.65133639 226.93998095 -29.65485005 225.22626998 -29.66749954 223.51264763 C-29.68340228 221.17330687 -29.66850894 218.83611106 -29.64582825 216.49687195 C-29.64524194 215.18796745 -29.64465563 213.87906296 -29.64405155 212.53049469 C-28.86037362 208.28092514 -27.36792509 206.77462484 -24.01763916 204.13371277 C-21.88043213 204.05046082 -21.88043213 204.05046082 -20.01763916 205.13371277 C-18.55718994 207.0196991 -18.55718994 207.0196991 -17.21295166 209.46574402 C-16.71150635 210.34681824 -16.21006104 211.22789246 -15.69342041 212.13566589 C-14.66634641 213.99707582 -13.6402907 215.85904801 -12.61529541 217.72160339 C-12.11127197 218.6065448 -11.60724854 219.49148621 -11.08795166 220.40324402 C-10.64209717 221.21382263 -10.19624268 222.02440125 -9.73687744 222.85954285 C-6.96324326 226.52844407 -4.2598614 228.79467373 0.40640259 229.50024414 C3.37703226 229.66330608 6.31983435 229.68803834 9.29486084 229.66496277 C10.38194336 229.66878967 11.46902588 229.67261658 12.58905029 229.67655945 C14.88194711 229.67927518 17.17487509 229.67193788 19.4677124 229.65519714 C22.9706959 229.63378407 26.47162839 229.65501183 29.97454834 229.68058777 C32.20632369 229.67794443 34.43809776 229.67281934 36.66986084 229.66496277 C37.71375977 229.67305969 38.75765869 229.68115662 39.83319092 229.6894989 C45.85900026 229.61206733 49.41290954 229.18258204 53.98236084 225.13371277 C56.21228487 222.19674654 56.21228487 222.19674654 58.04486084 218.88371277 C58.72303308 217.72863966 59.40141838 216.57369163 60.08001709 215.41886902 C60.70779053 214.33476746 61.33556396 213.25066589 61.98236084 212.13371277 C62.97454528 210.52470042 63.973045 208.91953446 64.98236084 207.32121277 C65.64236084 206.26933777 66.30236084 205.21746277 66.98236084 204.13371277 C69.51557412 204.47603889 71.48289146 204.80039149 73.62778187 206.23178577 C75.71581041 209.16352909 75.35064934 211.68772724 75.34312439 215.25204468 C75.34568766 215.98148027 75.34825094 216.71091587 75.35089189 217.46245557 C75.35584391 219.91323758 75.33931399 222.36340719 75.32293701 224.81413269 C75.32209104 226.56824733 75.32256529 228.32236303 75.32426453 230.07647705 C75.32512709 234.84483497 75.30745916 239.61296759 75.28654265 244.38127303 C75.26781928 249.36208063 75.26602884 254.3428931 75.26246643 259.32373047 C75.25313319 268.75849419 75.22850211 278.19315393 75.19841796 287.62787181 C75.16491373 298.36774658 75.14839795 309.10762626 75.13333166 319.84754026 C75.10195367 341.94298919 75.04916834 364.03834443 74.98236084 386.13371277 C75.70826416 385.98748474 76.43416748 385.84125671 77.18206787 385.69059753 C80.49029388 385.02477941 83.79882352 384.36048215 87.10736084 383.69621277 C88.8205249 383.35106628 88.8205249 383.35106628 90.56829834 382.99894714 C92.23118896 382.66540222 92.23118896 382.66540222 93.92767334 382.32511902 C95.45158691 382.01876526 95.45158691 382.01876526 97.00628662 381.70622253 C99.9891868 381.13239965 102.98609839 380.63308984 105.98236084 380.13371277 C100.70236084 379.80371277 95.42236084 379.47371277 89.98236084 379.13371277 C89.98236084 369.23371277 89.98236084 359.33371277 89.98236084 349.13371277 C92.04790222 349.13228775 94.1134436 349.13086273 96.24157715 349.12939453 C115.72212348 349.11358216 135.20247022 349.07020275 154.68290329 349.0016222 C164.69762336 348.96702434 174.71220652 348.94162351 184.72698975 348.93815613 C193.45970442 348.93510899 202.19217495 348.91451792 210.92479539 348.8731882 C215.54525635 348.85192444 220.1653708 348.83922337 224.78588104 348.84755898 C229.14287244 348.85514128 233.49916417 348.83910819 237.8560276 348.80565262 C239.44739788 348.79746937 241.03883841 348.7976098 242.63020134 348.80711555 C253.90858641 348.86776702 264.23339031 347.71740875 272.98236084 339.82121277 C278.55720889 333.58010239 281.10080183 326.73463554 281.1137886 318.39218616 C281.11762975 317.46181469 281.12147089 316.53144321 281.12542844 315.57287866 C281.12412871 314.0524684 281.12412871 314.0524684 281.12280273 312.50134277 C281.12577386 311.41790138 281.12874498 310.33445999 281.13180614 309.21818703 C281.14049047 305.58105305 281.14200117 301.943952 281.14349365 298.30680847 C281.14812202 295.7016391 281.1531467 293.0964704 281.15853882 290.49130249 C281.17210785 283.4085101 281.17814469 276.32572338 281.18254948 269.24292016 C281.18531443 264.81804488 281.18955226 260.39317177 281.19405365 255.96829796 C281.20624467 243.71049925 281.21654417 231.45270229 281.21992874 219.19489765 C281.22014831 218.41070428 281.22036787 217.62651092 281.22059409 216.81855411 C281.22081237 216.03251304 281.22103065 215.24647197 281.22125554 214.43661147 C281.221699 212.84386464 281.22214557 211.2511178 281.22259521 209.65837097 C281.22281664 208.86831805 281.22303807 208.07826514 281.22326621 207.26427122 C281.22721276 194.46759603 281.24466316 181.67097784 281.26795474 168.87432466 C281.29168988 155.72755154 281.30413158 142.580807 281.30529666 129.43401212 C281.30621223 122.05607732 281.31193467 114.6782168 281.33011627 107.30030251 C281.3471623 100.35886118 281.34875372 93.41756279 281.33997726 86.47610664 C281.33920674 83.93084587 281.34355159 81.38557754 281.35343552 78.84033585 C281.36615476 75.36039019 281.36027777 71.88094342 281.34985352 68.40100098 C281.35790992 67.39854774 281.36596632 66.39609451 281.37426686 65.36326391 C281.30709552 55.74693109 279.29609982 47.59322775 273.08782959 40.11418152 C267.82493516 35.16374093 260.61228782 32.01722396 253.39322567 31.99669838 C252.44593592 31.99162384 251.49864616 31.98654929 250.52265066 31.98132098 C248.95848334 31.98057434 248.95848334 31.98057434 247.36271667 31.97981262 C246.25648282 31.97543037 245.15024896 31.97104811 244.01049286 31.96653306 C240.28423558 31.9531227 236.55800196 31.94696114 232.83172607 31.94084167 C230.16773804 31.93294242 227.50375306 31.9246787 224.83976746 31.9160614 C216.83052591 31.89153857 208.82127816 31.87690939 200.81201062 31.86400133 C198.54931439 31.86028898 196.28661877 31.85631578 194.02392316 31.85224867 C179.9695883 31.82700914 165.91525245 31.80495836 151.86089993 31.79252052 C148.60540704 31.78959087 145.34991419 31.7866292 142.09442139 31.78361511 C141.28529378 31.78286906 140.47616617 31.78212301 139.64251954 31.78135435 C126.54175032 31.76870687 113.44111701 31.73549216 100.3404113 31.69381328 C86.88633949 31.65136161 73.43233719 31.62782167 59.97819859 31.62259996 C52.42579184 31.61918924 44.87359738 31.60747453 37.32125664 31.57449722 C30.88765522 31.54645086 24.45430961 31.53551729 18.02065181 31.54669268 C14.74025198 31.55186804 11.46049785 31.54632182 8.18015289 31.52422714 C4.61662087 31.50153458 1.0544299 31.50983304 -2.5091095 31.52571106 C-3.53627266 31.51182897 -4.56343582 31.49794688 -5.62172514 31.48364413 C-13.88487543 31.57411907 -20.29797116 33.99610906 -26.63873291 39.34465027 C-27.537854 40.41586121 -27.537854 40.41586121 -28.45513916 41.50871277 C-29.0726001 42.21769714 -29.69006104 42.92668152 -30.32623291 43.65715027 C-35.52296704 51.26622518 -35.4308578 57.80243339 -35.35479736 66.83659363 C-35.35399009 68.22364286 -35.35458722 69.61069352 -35.35647583 70.9977417 C-35.35803194 73.97428081 -35.35069104 76.95061636 -35.33663368 79.92712212 C-35.31542628 84.63884587 -35.3202806 89.35032365 -35.32969666 94.06207275 C-35.35252673 107.45670227 -35.34065668 120.85118325 -35.30255127 134.24577332 C-35.28171265 141.65162555 -35.282447 149.05717082 -35.30608624 156.46301752 C-35.31972843 161.14190626 -35.30666569 165.81970439 -35.27348864 170.49848354 C-35.2590953 173.41512836 -35.26982644 176.33128965 -35.28747177 179.24790001 C-35.29213777 181.23352336 -35.26708505 183.21914785 -35.24098206 185.2046051 C-35.31216105 192.10899655 -35.85550564 196.40801214 -40.63298321 201.57703495 C-43.53285376 204.83716911 -43.15314945 208.42608965 -43.17585754 212.56869507 C-43.18079552 213.22462672 -43.1857335 213.88055837 -43.19082111 214.55636674 C-43.20620091 216.75817158 -43.21455801 218.95994724 -43.22296143 221.16178894 C-43.23253957 222.7385687 -43.24254962 224.31534588 -43.25296021 225.89212036 C-43.2800222 230.17691359 -43.30102476 234.46171786 -43.32096219 238.74654937 C-43.34281375 243.22289912 -43.3702065 247.69921482 -43.39701843 252.17553711 C-43.44695655 260.65400115 -43.49189123 269.13248409 -43.5350408 277.6109851 C-43.58440361 287.26264682 -43.63932528 296.91427438 -43.69472039 306.56590307 C-43.80855761 326.42180782 -43.91539287 346.27774517 -44.01763916 366.13371277 C-45.12315806 365.19780773 -46.22699369 364.25991419 -47.33013916 363.32121277 C-47.94502197 362.79914246 -48.55990479 362.27707214 -49.19342041 361.73918152 C-60.05783888 352.17756269 -66.23840607 337.85543218 -67.19181895 323.51358962 C-67.48717959 315.6597928 -67.43694649 307.80106083 -67.42169189 299.94303894 C-67.42740048 297.28730146 -67.43426721 294.63158919 -67.44248962 291.9758606 C-67.45960691 285.53460025 -67.46053234 279.09343777 -67.45527672 272.65216061 C-67.45122018 267.41137009 -67.45269611 262.17060828 -67.45802498 256.92981911 C-67.4587734 256.18130179 -67.45952182 255.43278446 -67.46029292 254.6615848 C-67.46182455 253.14051243 -67.4633629 251.61944008 -67.46490789 250.09836773 C-67.47860761 235.86255052 -67.4732133 221.6267884 -67.46172268 207.39097247 C-67.45179516 194.39836846 -67.46472713 181.40590695 -67.48865687 168.41332491 C-67.5131039 155.03799454 -67.52264188 141.66273038 -67.51600415 128.28737813 C-67.51252405 120.79198869 -67.51466337 113.29670871 -67.53225517 105.80133629 C-67.5470476 99.42012089 -67.54752159 93.03909205 -67.53018426 86.65788003 C-67.52172879 83.40917059 -67.52159651 80.1608583 -67.53483582 76.91215515 C-67.61992999 54.2930895 -65.83467477 34.50985231 -49.39654541 17.34855652 C-35.28613117 4.2112743 -18.80038645 -0.0289006 0 0 Z " fill="#DD636E" transform="translate(131.01763916015625,8.866287231445313)"/>
<path d="M0 0 C4.23170951 -0.0999677 8.4627671 -0.17197673 12.6953125 -0.21972656 C14.13065587 -0.23966189 15.56591997 -0.26682074 17.00097656 -0.30175781 C28.19777679 -0.56723285 37.91810942 0.27837865 46.46875 8.3046875 C54.16180133 16.82199433 55.30238668 25.90748913 55.26069641 36.99986267 C55.26452196 38.08657291 55.26834751 39.17328314 55.27228898 40.29292399 C55.28258241 43.9231155 55.27863374 47.55314778 55.2746582 51.18334961 C55.27900666 53.79058478 55.28419026 56.39781867 55.29014587 59.00505066 C55.30287267 65.34503491 55.30468912 71.68497678 55.30234561 78.02497166 C55.30056017 83.17964758 55.30231693 88.33431067 55.30657005 93.48898506 C55.30716524 94.22354873 55.30776043 94.95811239 55.30837366 95.71493556 C55.30958545 97.20735371 55.31079958 98.69977185 55.31201603 100.19219 C55.32288361 114.17691609 55.32073268 128.16161805 55.31463119 142.1463455 C55.30946169 154.93057657 55.32071972 167.71473144 55.33972941 180.49894743 C55.35911626 193.63790555 55.36736239 206.77682764 55.36360615 219.91580015 C55.36169553 227.28750432 55.36416822 234.65914363 55.37832069 242.03083611 C55.39149412 248.96247384 55.38896298 255.89395665 55.37590981 262.82559395 C55.37354268 265.36804887 55.37628353 267.91051451 55.38453293 270.45295715 C55.39499006 273.92653313 55.38690737 277.39959607 55.3742218 280.87315369 C55.38159609 281.8764734 55.38897037 282.87979312 55.39656812 283.91351646 C55.32273258 293.53998935 53.06622117 301.63991449 46.31640625 308.78125 C36.64461389 317.96653369 26.33412667 318.57776633 13.53466797 318.45410156 C11.88789396 318.45297149 10.24111794 318.45361007 8.59434509 318.45587158 C4.15068479 318.45701342 -0.29253854 318.43359066 -4.73609781 318.40557575 C-9.38986874 318.3804731 -14.04365106 318.37821314 -18.69747925 318.37347412 C-27.4981101 318.36107029 -36.29854082 318.32828397 -45.09908378 318.28807616 C-55.12328044 318.24327751 -65.14748695 318.2213511 -75.17175889 318.20129442 C-95.7813089 318.15954886 -116.39058479 318.08622909 -137 318 C-136.67 329.22 -136.34 340.44 -136 352 C-140.287325 353.42910833 -143.07971175 354.27673339 -147.375 354.625 C-148.24898438 354.69976562 -149.12296875 354.77453125 -150.0234375 354.8515625 C-150.67570312 354.90054687 -151.32796875 354.94953125 -152 355 C-152.00219984 353.62810154 -152.00219984 353.62810154 -152.00444412 352.22848797 C-152.04146206 329.99572703 -152.10040995 307.76311915 -152.18390274 285.53048229 C-152.22374757 274.77902659 -152.25611235 264.02764466 -152.27099609 253.27612305 C-152.28398445 243.90737482 -152.31087676 234.53878854 -152.35461307 225.1701315 C-152.37729144 220.20739455 -152.39290688 215.24485781 -152.39188385 210.28206444 C-152.39114099 205.61411682 -152.40894039 200.94661287 -152.44116783 196.27877998 C-152.44970994 194.56268714 -152.45138773 192.84654477 -152.44580269 191.13043976 C-152.4392056 188.79254594 -152.45697749 186.45608164 -152.48101807 184.11833191 C-152.48470524 182.80846408 -152.48839241 181.49859625 -152.49219131 180.14903545 C-152.70526041 176.94459955 -152.70526041 176.94459955 -154.84493637 175.05510426 C-157.04915261 173.78013974 -157.04915261 173.78013974 -160 174 C-161.35502773 175.7072345 -161.35502773 175.7072345 -162.48828125 177.98046875 C-162.94783203 178.81513672 -163.40738281 179.64980469 -163.88085938 180.50976562 C-164.82456054 182.27486017 -165.76729201 184.04047355 -166.70898438 185.80664062 C-169.92399128 191.64194523 -172.88410726 195.94205363 -179 199 C-180.56568783 199.11520356 -182.1360645 199.16947036 -183.70581055 199.19287109 C-184.68410324 199.20893402 -185.66239594 199.22499695 -186.67033386 199.24154663 C-191.15643644 199.28602691 -195.6423904 199.32707997 -200.12866211 199.35009766 C-202.49236917 199.36663728 -204.85602664 199.39390062 -207.21948242 199.43212891 C-210.62965822 199.48700475 -214.03866034 199.50879109 -217.44921875 199.5234375 C-218.50050461 199.54610687 -219.55179047 199.56877625 -220.63493347 199.59213257 C-226.3382473 199.57578068 -230.20404026 199.14953338 -234.63999939 195.39654541 C-236.53278963 193.4528937 -237.95762488 191.4895297 -239.30859375 189.13671875 C-240.08686523 187.80737305 -240.08686523 187.80737305 -240.88085938 186.45117188 C-241.39455078 185.53916016 -241.90824219 184.62714844 -242.4375 183.6875 C-242.97826172 182.75615234 -243.51902344 181.82480469 -244.07617188 180.86523438 C-245.39793962 178.58430774 -246.70519659 176.29630528 -248 174 C-250.43717258 174.27034634 -250.43717258 174.27034634 -253 175 C-255.49122737 178.73684106 -255.25370587 180.66153065 -255.26069641 185.12937927 C-255.26643473 186.2254246 -255.26643473 186.2254246 -255.27228898 187.34361225 C-255.28263024 189.79872752 -255.27862475 192.25360941 -255.2746582 194.70874023 C-255.27900406 196.46621925 -255.28418678 198.22369637 -255.29014587 199.98117065 C-255.30356071 204.76005607 -255.30411179 209.53886251 -255.30158257 214.31776309 C-255.30051455 218.30400961 -255.3053919 222.29024004 -255.310188 226.27648312 C-255.32129176 235.67888179 -255.32171569 245.08124052 -255.31567383 254.48364258 C-255.3096321 264.19087037 -255.32194811 273.89795329 -255.3432439 283.60515636 C-255.36084348 291.93303301 -255.36686386 300.26086348 -255.36360615 308.58875805 C-255.36179054 313.5654472 -255.36445717 318.54203301 -255.37832069 323.51870537 C-255.39086773 328.19807722 -255.38898466 332.87722278 -255.37590981 337.55659103 C-255.37353764 339.27551283 -255.37630151 340.99445039 -255.38453293 342.71335411 C-255.39494835 345.05704668 -255.3869423 347.39997256 -255.3742218 349.74363708 C-255.37438954 351.05606101 -255.37455729 352.36848494 -255.37473011 353.72067928 C-254.97961792 357.17836675 -254.48295446 358.60482418 -252 361 C-249.36634421 361.61782669 -249.36634421 361.61782669 -246.33520508 361.54589844 C-245.17422806 361.56561707 -244.01325104 361.58533569 -242.8170929 361.60565186 C-240.93729988 361.60749481 -240.93729988 361.60749481 -239.01953125 361.609375 C-237.73640549 361.62591125 -236.45327972 361.64244751 -235.13127136 361.65948486 C-231.72330858 361.70318228 -228.31560329 361.72316222 -224.90740967 361.73822021 C-221.42835244 361.75778313 -217.94957365 361.79975386 -214.47070312 361.83984375 C-207.64724032 361.91517101 -200.82378771 361.965447 -194 362 C-194 362.33 -194 362.66 -194 363 C-202.40422757 364.46110908 -210.80991002 365.91340574 -219.21759415 367.35447788 C-223.12157504 368.02390264 -227.02498463 368.69635045 -230.92724609 369.37573242 C-234.69317995 370.03126498 -238.46040594 370.67882289 -242.22866058 371.32087517 C-243.66605257 371.56722446 -245.10295585 371.81644297 -246.53934479 372.06857491 C-248.55128099 372.42122897 -250.56516024 372.76274286 -252.57910156 373.10375977 C-253.72493713 373.3013942 -254.87077271 373.49902863 -256.05133057 373.70265198 C-258.78412783 373.97823114 -260.45876559 373.96649442 -263 373 C-264.6328125 371.546875 -264.6328125 371.546875 -266.125 369.75 C-266.87136719 368.87601562 -266.87136719 368.87601562 -267.6328125 367.984375 C-270.85760176 363.30382374 -271.29189584 358.95101676 -271.26742554 353.39128113 C-271.27195665 352.63311279 -271.27648776 351.87494445 -271.28115618 351.09380132 C-271.29379963 348.55750777 -271.29217986 346.02142897 -271.29052734 343.48510742 C-271.29651265 341.66485824 -271.30331821 339.84461159 -271.31088257 338.02436829 C-271.32855008 333.0821225 -271.33323828 328.13994597 -271.33451414 323.19767165 C-271.33593594 320.10886334 -271.34020609 317.02007263 -271.34550858 313.93126869 C-271.36401173 303.15232857 -271.37217888 292.3734379 -271.37060547 281.59448242 C-271.36940417 271.55211727 -271.39050346 261.50996708 -271.4220928 251.46765631 C-271.44825872 242.84158925 -271.45897262 234.21559238 -271.45769465 225.58948594 C-271.45718509 220.43939903 -271.4628652 215.28950313 -271.48405075 210.1394558 C-271.50343825 205.29420493 -271.50355404 200.44932719 -271.48901749 195.60406303 C-271.48692889 193.82876286 -271.49163332 192.0534393 -271.5037384 190.27817917 C-271.51923047 187.84824044 -271.50985767 185.41958198 -271.49447632 182.9896698 C-271.50476344 182.29266675 -271.51505057 181.59566369 -271.52564943 180.87753934 C-271.43746619 174.54244116 -269.16446572 169.46998673 -265.03515625 164.7578125 C-264.38417969 164.21898437 -263.73320312 163.68015625 -263.0625 163.125 C-262.41410156 162.57070312 -261.76570313 162.01640625 -261.09765625 161.4453125 C-255.70892519 157.73240656 -250.82162153 157.70304786 -244.48730469 157.70947266 C-243.5354277 157.70275543 -242.58355072 157.69603821 -241.60282898 157.68911743 C-238.45912438 157.67013591 -235.31563333 157.66621289 -232.171875 157.6640625 C-229.98097649 157.65763383 -227.79007884 157.65090541 -225.59918213 157.64389038 C-221.00604259 157.63191661 -216.41297826 157.62820958 -211.81982422 157.62939453 C-205.94772053 157.62959753 -200.07610187 157.60231565 -194.20411301 157.56785011 C-189.67779344 157.54555846 -185.15159008 157.54155772 -180.62522125 157.54261398 C-178.46117738 157.54026067 -176.29713018 157.53145241 -174.13314056 157.51594925 C-171.09851132 157.4962474 -168.06492115 157.50214453 -165.03027344 157.51416016 C-164.14476303 157.50292114 -163.25925262 157.49168213 -162.34690857 157.48010254 C-155.23325283 157.55130277 -149.20754008 159.35471653 -143.66015625 163.9296875 C-143.13292969 164.57164062 -142.60570312 165.21359375 -142.0625 165.875 C-141.51722656 166.51179687 -140.97195312 167.14859375 -140.41015625 167.8046875 C-136.84607069 173.35320851 -136.71836354 178.75966461 -136.77294922 185.12646484 C-136.77265717 186.02466949 -136.77236511 186.92287415 -136.77206421 187.84829712 C-136.77345207 190.80261053 -136.78898768 193.75666841 -136.8046875 196.7109375 C-136.80841956 198.76502342 -136.81126562 200.81911112 -136.81326294 202.87319946 C-136.82088417 208.26874746 -136.84051973 213.66418708 -136.8626709 219.05969238 C-136.88316184 224.56972793 -136.8922716 230.07978105 -136.90234375 235.58984375 C-136.92376702 246.39327667 -136.95788476 257.19662931 -137 268 C-123.90790612 267.98508933 -110.81619358 267.94333477 -97.72430038 267.86790943 C-91.6442757 267.83371168 -85.56450039 267.80854062 -79.484375 267.80444336 C-73.60970137 267.80014504 -67.73558958 267.77155453 -61.86109161 267.72656822 C-59.62700938 267.71364229 -57.39285975 267.70926801 -55.15874481 267.71384621 C-40.04327597 267.7375929 -28.57508988 267.23061325 -16.5234375 257.13671875 C-15 256 -15 256 -13 256 C-12.72929687 255.4225 -12.45859375 254.845 -12.1796875 254.25 C-10.99388137 251.98833002 -9.63064854 250.05953997 -8.125 248 C0.04393492 235.53168169 -0.41754806 222.80580626 -0.45410156 208.43261719 C-0.44535679 206.15500689 -0.43486788 203.87740272 -0.42277527 201.59980774 C-0.39500566 195.44570668 -0.3915086 189.291807 -0.39249516 183.1376524 C-0.3893583 176.69542155 -0.36372396 170.25328036 -0.34051514 163.81109619 C-0.30460707 153.00768548 -0.28246641 142.20434026 -0.27099609 131.40087891 C-0.25914943 120.27877392 -0.23891778 109.15673569 -0.20751953 98.03466797 C-0.20558343 97.34782467 -0.20364733 96.66098138 -0.20165256 95.95332465 C-0.19188726 92.5072514 -0.18195828 89.06117865 -0.17194796 85.61510611 C-0.0892597 57.07677181 -0.03548544 28.53842988 0 0 Z " fill="#365E7C" transform="translate(358,40)"/>
<path d="M0 0 C1.08867709 -0.00226556 2.17735418 -0.00453111 3.29902148 -0.00686532 C6.93599184 -0.01318013 10.57292468 -0.01237757 14.2098999 -0.0115509 C16.82211861 -0.01454397 19.43433688 -0.01794684 22.04655457 -0.02172852 C28.39956812 -0.03001667 34.7525724 -0.03278253 41.10559091 -0.03334089 C46.27263272 -0.03381694 51.43967149 -0.03587611 56.60671234 -0.03904152 C71.27378083 -0.0478432 85.94084202 -0.05246167 100.60791317 -0.05171105 C101.39776508 -0.05167109 102.18761699 -0.05163113 103.00140381 -0.05158997 C103.79222622 -0.05154909 104.58304862 -0.0515082 105.39783534 -0.05146609 C118.2091213 -0.05105979 131.02037784 -0.06062655 143.83165529 -0.07472833 C157.00339314 -0.08911185 170.17511666 -0.09599743 183.34686255 -0.09513456 C190.73485797 -0.09480326 198.12282254 -0.09752064 205.51081085 -0.10831261 C212.46130492 -0.11840087 219.41173299 -0.11806209 226.3622303 -0.11079597 C228.90826322 -0.10975206 231.45430022 -0.11210153 234.00032616 -0.11815643 C237.48588896 -0.1259066 240.97122889 -0.12121144 244.45678711 -0.11352539 C245.95449532 -0.12124074 245.95449532 -0.12124074 247.48246026 -0.12911195 C266.37650565 -0.03755503 281.80691895 5.54196995 295.73236084 18.44621277 C305.03798954 28.30839821 312.09324192 42.30972173 312.1137886 56.04144382 C312.11762975 57.00889926 312.12147089 57.97635469 312.12542844 58.97312695 C312.12456196 60.02816998 312.12369547 61.08321302 312.12280273 62.17022705 C312.12725942 63.86065106 312.12725942 63.86065106 312.13180614 65.58522505 C312.14049276 69.36970565 312.14200137 73.15415462 312.14349365 76.93864441 C312.14758455 79.64894294 312.15312608 82.35923814 312.15853882 85.0695343 C312.1721104 92.43964197 312.17814531 99.80974418 312.18254948 107.17986226 C312.18531446 111.78499355 312.18955233 116.39012274 312.19405365 120.99525261 C312.20624586 133.75402348 312.21654457 146.51279268 312.21992874 159.27156925 C312.22014831 160.08790322 312.22036787 160.90423719 312.22059409 161.74530854 C312.22081237 162.56356313 312.22103065 163.38181771 312.22125554 164.22486788 C312.221699 165.88287803 312.22214557 167.54088817 312.22259521 169.19889832 C312.22281664 170.02132337 312.22303807 170.84374843 312.22326621 171.69109546 C312.22721129 185.0069739 312.24465666 198.32279751 312.26795474 211.63865478 C312.29170015 225.32106334 312.30413208 239.00344443 312.30529666 252.68587393 C312.30621174 260.36344891 312.31192176 268.04095251 312.33011627 275.71850777 C312.34556053 282.25846287 312.35061241 288.79832451 312.34237817 295.33829439 C312.33848655 298.67149214 312.3409787 302.00434985 312.35343552 305.33754921 C312.3661806 308.96129719 312.36026371 312.58456784 312.34985352 316.20831299 C312.36193812 317.76745496 312.36193812 317.76745496 312.37426686 319.35809475 C312.26096774 336.30539059 305.79891763 351.02673369 293.98236084 363.13371277 C281.57999065 374.16375984 267.83804524 379.50942575 251.35736084 379.32902527 C250.3698584 379.32619537 249.38235596 379.32336548 248.3649292 379.32044983 C245.23727869 379.30933097 242.10992356 379.28424193 238.98236084 379.25871277 C236.85085458 379.24867224 234.7193438 379.23954827 232.58782959 379.23136902 C227.38590734 379.20941889 222.1841552 379.17602484 216.98236084 379.13371277 C218.06741118 375.60361687 219.00202092 373.10618865 221.16986084 370.07121277 C223.28476048 367.29750236 223.28476048 367.29750236 222.73236084 364.25871277 C222.48486084 363.55746277 222.23736084 362.85621277 221.98236084 362.13371277 C213.66957865 362.93728171 205.46352837 364.31053485 197.23236084 365.69621277 C196.09033203 365.88721558 196.09033203 365.88721558 194.92523193 366.08207703 C178.07373924 368.90194905 161.25346026 371.89772646 144.4364624 374.91555786 C141.80815778 375.38577724 139.17901254 375.85104937 136.54974365 376.31584167 C133.88120149 376.78862989 131.22277069 377.28330929 128.56341553 377.80705261 C120.42562089 379.35457214 112.48738946 379.3618778 104.23236084 379.25871277 C99.52986084 379.21746277 94.82736084 379.17621277 89.98236084 379.13371277 C89.98236084 369.23371277 89.98236084 359.33371277 89.98236084 349.13371277 C92.04790222 349.13228775 94.1134436 349.13086273 96.24157715 349.12939453 C115.72212348 349.11358216 135.20247022 349.07020275 154.68290329 349.0016222 C164.69762336 348.96702434 174.71220652 348.94162351 184.72698975 348.93815613 C193.45970442 348.93510899 202.19217495 348.91451792 210.92479539 348.8731882 C215.54525635 348.85192444 220.1653708 348.83922337 224.78588104 348.84755898 C229.14287244 348.85514128 233.49916417 348.83910819 237.8560276 348.80565262 C239.44739788 348.79746937 241.03883841 348.7976098 242.63020134 348.80711555 C253.90858641 348.86776702 264.23339031 347.71740875 272.98236084 339.82121277 C278.55720889 333.58010239 281.10080183 326.73463554 281.1137886 318.39218616 C281.11762975 317.46181469 281.12147089 316.53144321 281.12542844 315.57287866 C281.12412871 314.0524684 281.12412871 314.0524684 281.12280273 312.50134277 C281.12577386 311.41790138 281.12874498 310.33445999 281.13180614 309.21818703 C281.14049047 305.58105305 281.14200117 301.943952 281.14349365 298.30680847 C281.14812202 295.7016391 281.1531467 293.0964704 281.15853882 290.49130249 C281.17210785 283.4085101 281.17814469 276.32572338 281.18254948 269.24292016 C281.18531443 264.81804488 281.18955226 260.39317177 281.19405365 255.96829796 C281.20624467 243.71049925 281.21654417 231.45270229 281.21992874 219.19489765 C281.22014831 218.41070428 281.22036787 217.62651092 281.22059409 216.81855411 C281.22081237 216.03251304 281.22103065 215.24647197 281.22125554 214.43661147 C281.221699 212.84386464 281.22214557 211.2511178 281.22259521 209.65837097 C281.22281664 208.86831805 281.22303807 208.07826514 281.22326621 207.26427122 C281.22721276 194.46759603 281.24466316 181.67097784 281.26795474 168.87432466 C281.29168988 155.72755154 281.30413158 142.580807 281.30529666 129.43401212 C281.30621223 122.05607732 281.31193467 114.6782168 281.33011627 107.30030251 C281.3471623 100.35886118 281.34875372 93.41756279 281.33997726 86.47610664 C281.33920674 83.93084587 281.34355159 81.38557754 281.35343552 78.84033585 C281.36615476 75.36039019 281.36027777 71.88094342 281.34985352 68.40100098 C281.35790992 67.39854774 281.36596632 66.39609451 281.37426686 65.36326391 C281.30709552 55.74693109 279.29609982 47.59322775 273.08782959 40.11418152 C267.82493516 35.16374093 260.61228782 32.01722396 253.39322567 31.99669838 C252.44593592 31.99162384 251.49864616 31.98654929 250.52265066 31.98132098 C248.95848334 31.98057434 248.95848334 31.98057434 247.36271667 31.97981262 C246.25648282 31.97543037 245.15024896 31.97104811 244.01049286 31.96653306 C240.28423558 31.9531227 236.55800196 31.94696114 232.83172607 31.94084167 C230.16773804 31.93294242 227.50375306 31.9246787 224.83976746 31.9160614 C216.83052591 31.89153857 208.82127816 31.87690939 200.81201062 31.86400133 C198.54931439 31.86028898 196.28661877 31.85631578 194.02392316 31.85224867 C179.9695883 31.82700914 165.91525245 31.80495836 151.86089993 31.79252052 C148.60540704 31.78959087 145.34991419 31.7866292 142.09442139 31.78361511 C141.28529378 31.78286906 140.47616617 31.78212301 139.64251954 31.78135435 C126.54175032 31.76870687 113.44111701 31.73549216 100.3404113 31.69381328 C86.88633949 31.65136161 73.43233719 31.62782167 59.97819859 31.62259996 C52.42579184 31.61918924 44.87359738 31.60747453 37.32125664 31.57449722 C30.88765522 31.54645086 24.45430961 31.53551729 18.02065181 31.54669268 C14.74025198 31.55186804 11.46049785 31.54632182 8.18015289 31.52422714 C4.61662087 31.50153458 1.0544299 31.50983304 -2.5091095 31.52571106 C-3.53627266 31.51182897 -4.56343582 31.49794688 -5.62172514 31.48364413 C-13.88487543 31.57411907 -20.29797116 33.99610906 -26.63873291 39.34465027 C-27.23814697 40.05879089 -27.83756104 40.77293152 -28.45513916 41.50871277 C-29.0726001 42.21769714 -29.69006104 42.92668152 -30.32623291 43.65715027 C-35.52296704 51.26622518 -35.4308578 57.80243339 -35.35479736 66.83659363 C-35.35399009 68.22364286 -35.35458722 69.61069352 -35.35647583 70.9977417 C-35.35803194 73.97428081 -35.35069104 76.95061636 -35.33663368 79.92712212 C-35.31542628 84.63884587 -35.3202806 89.35032365 -35.32969666 94.06207275 C-35.35252673 107.45670227 -35.34065668 120.85118325 -35.30255127 134.24577332 C-35.28171265 141.65162555 -35.282447 149.05717082 -35.30608624 156.46301752 C-35.31972843 161.14190626 -35.30666569 165.81970439 -35.27348864 170.49848354 C-35.2590953 173.41512836 -35.26982644 176.33128965 -35.28747177 179.24790001 C-35.29213777 181.23352336 -35.26708505 183.21914785 -35.24098206 185.2046051 C-35.31216105 192.10899655 -35.85550564 196.40801214 -40.63298321 201.57703495 C-43.53285376 204.83716911 -43.15314945 208.42608965 -43.17585754 212.56869507 C-43.18079552 213.22462672 -43.1857335 213.88055837 -43.19082111 214.55636674 C-43.20620091 216.75817158 -43.21455801 218.95994724 -43.22296143 221.16178894 C-43.23253957 222.7385687 -43.24254962 224.31534588 -43.25296021 225.89212036 C-43.2800222 230.17691359 -43.30102476 234.46171786 -43.32096219 238.74654937 C-43.34281375 243.22289912 -43.3702065 247.69921482 -43.39701843 252.17553711 C-43.44695655 260.65400115 -43.49189123 269.13248409 -43.5350408 277.6109851 C-43.58440361 287.26264682 -43.63932528 296.91427438 -43.69472039 306.56590307 C-43.80855761 326.42180782 -43.91539287 346.27774517 -44.01763916 366.13371277 C-45.12315806 365.19780773 -46.22699369 364.25991419 -47.33013916 363.32121277 C-47.94502197 362.79914246 -48.55990479 362.27707214 -49.19342041 361.73918152 C-60.05783888 352.17756269 -66.23840607 337.85543218 -67.19181895 323.51358962 C-67.48717959 315.6597928 -67.43694649 307.80106083 -67.42169189 299.94303894 C-67.42740048 297.28730146 -67.43426721 294.63158919 -67.44248962 291.9758606 C-67.45960691 285.53460025 -67.46053234 279.09343777 -67.45527672 272.65216061 C-67.45122018 267.41137009 -67.45269611 262.17060828 -67.45802498 256.92981911 C-67.4587734 256.18130179 -67.45952182 255.43278446 -67.46029292 254.6615848 C-67.46182455 253.14051243 -67.4633629 251.61944008 -67.46490789 250.09836773 C-67.47860761 235.86255052 -67.4732133 221.6267884 -67.46172268 207.39097247 C-67.45179516 194.39836846 -67.46472713 181.40590695 -67.48865687 168.41332491 C-67.5131039 155.03799454 -67.52264188 141.66273038 -67.51600415 128.28737813 C-67.51252405 120.79198869 -67.51466337 113.29670871 -67.53225517 105.80133629 C-67.5470476 99.42012089 -67.54752159 93.03909205 -67.53018426 86.65788003 C-67.52172879 83.40917059 -67.52159651 80.1608583 -67.53483582 76.91215515 C-67.61992999 54.2930895 -65.83467477 34.50985231 -49.39654541 17.34855652 C-35.28613117 4.2112743 -18.80038645 -0.0289006 0 0 Z " fill="#F5E166" transform="translate(131.01763916015625,8.866287231445313)"/>
<path d="M0 0 C2.47281269 1.43799082 3.29177211 2.91197371 4.66748047 5.4152832 C5.41964844 6.73689453 5.41964844 6.73689453 6.18701172 8.08520508 C7.21408572 9.94661501 8.24014143 11.80858719 9.26513672 13.67114258 C9.76916016 14.55608398 10.27318359 15.44102539 10.79248047 16.3527832 C11.23833496 17.16336182 11.68418945 17.97394043 12.14355469 18.80908203 C14.91718887 22.47798325 17.62057073 24.74421291 22.28683472 25.44978333 C25.25746439 25.61284526 28.20026648 25.63757752 31.17529297 25.61450195 C32.26237549 25.61832886 33.34945801 25.62215576 34.46948242 25.62609863 C36.76237924 25.62881436 39.05530722 25.62147707 41.34814453 25.60473633 C44.85112803 25.58332326 48.35206052 25.60455101 51.85498047 25.63012695 C54.08675581 25.62748362 56.31852989 25.62235853 58.55029297 25.61450195 C59.59419189 25.62259888 60.63809082 25.6306958 61.71362305 25.63903809 C67.73943239 25.56160651 71.29334167 25.13212122 75.86279297 21.08325195 C78.092717 18.14628572 78.092717 18.14628572 79.92529297 14.83325195 C80.60346521 13.67817885 81.28185051 12.52323081 81.96044922 11.3684082 C82.58822266 10.28430664 83.21599609 9.20020508 83.86279297 8.08325195 C84.8549774 6.4742396 85.85347713 4.86907364 86.86279297 3.27075195 C87.52279297 2.21887695 88.18279297 1.16700195 88.86279297 0.08325195 C91.39469751 0.42540122 93.3630935 0.7504977 95.508214 2.17895222 C97.60080898 5.12077263 97.23106079 7.66501371 97.22355652 11.23954773 C97.22611979 11.97306688 97.22868307 12.70658602 97.23132402 13.46233302 C97.2362762 15.9269333 97.21974585 18.39092466 97.20336914 20.85546875 C97.20252318 22.61943548 97.20299741 24.38340327 97.20469666 26.14736938 C97.20555923 30.94258543 97.18789108 35.73757744 97.16697478 40.53274131 C97.14825163 45.54157619 97.14646099 50.55041592 97.14289856 55.5592804 C97.13356525 65.04716779 97.10893409 74.53495178 97.07885009 84.02279359 C97.04534606 94.82312679 97.02883013 105.62346486 97.01376379 116.42383707 C96.98238565 138.6436998 96.92960019 160.86346937 96.86279297 183.08325195 C91.76677827 183.93675 86.6687373 184.7765326 81.56857491 185.60488605 C79.84200985 185.88713951 78.11600126 186.17282326 76.39063454 186.46231174 C60.7726259 189.07863059 45.56709062 189.98763987 29.7265625 189.81054688 C26.30746269 189.7764354 22.89274225 189.78069455 19.47384453 189.80478191 C16.14233862 189.82226183 12.81148382 189.80108868 9.47998047 189.7824707 C8.26365936 189.7894548 7.04733826 189.7964389 5.79415894 189.80363464 C4.67582672 189.78464615 3.55749451 189.76565765 2.40527344 189.74609375 C1.42734833 189.73909958 0.44942322 189.73210541 -0.55813599 189.72489929 C-4.22187604 188.81339704 -5.11980871 187.23187508 -7.13720703 184.08325195 C-7.64336491 180.68647003 -7.64336491 180.68647003 -7.65187073 176.72009277 C-7.65881626 175.98839261 -7.66576178 175.25669244 -7.67291778 174.50281954 C-7.69118452 172.05601114 -7.68092502 169.61017269 -7.6706543 167.16333008 C-7.67771292 165.40717341 -7.6864577 163.65102283 -7.69676208 161.8948822 C-7.71927095 157.12836603 -7.71631307 152.36218165 -7.70744061 147.59563255 C-7.7023324 143.61681947 -7.70962184 139.63806883 -7.71691269 135.65926218 C-7.73391608 126.27400669 -7.73034096 116.88891377 -7.71362305 107.50366211 C-7.69669504 97.81902394 -7.71254461 88.13483627 -7.74484593 78.45024729 C-7.77152723 70.13587815 -7.77882196 61.82164938 -7.77033085 53.50724173 C-7.76539812 48.54110814 -7.76763612 43.57524575 -7.78811836 38.60914612 C-7.80645295 33.94026331 -7.80054417 29.27202961 -7.77591896 24.60318184 C-7.77090427 22.88952014 -7.77441792 21.17580916 -7.78706741 19.46218681 C-7.80297015 17.12284605 -7.78807681 14.78565025 -7.76539612 12.44641113 C-7.76480981 11.13750664 -7.7642235 9.82860214 -7.76361942 8.48003387 C-6.97687111 4.21381486 -4.77142411 0.18586425 0 0 Z " fill="#90D7F8" transform="translate(109.13720703125,212.916748046875)"/>
<path d="M0 0 C0.95187698 -0.00671722 1.90375397 -0.01343445 2.88447571 -0.02035522 C6.02818031 -0.03933675 9.17167136 -0.04325976 12.31542969 -0.04541016 C14.5063282 -0.05183883 16.69722585 -0.05856724 18.88812256 -0.06558228 C23.4812621 -0.07755605 28.07432642 -0.08126308 32.66748047 -0.08007812 C38.53958415 -0.07987513 44.41120281 -0.107157 50.28319168 -0.14162254 C54.80951125 -0.1639142 59.3357146 -0.16791494 63.86208344 -0.16685867 C66.0261273 -0.16921199 68.19017451 -0.17802025 70.35416412 -0.19352341 C73.38879337 -0.21322526 76.42238354 -0.20732813 79.45703125 -0.1953125 C80.34254166 -0.20655151 81.22805206 -0.21779053 82.14039612 -0.22937012 C89.25405185 -0.15816988 95.27976461 1.64524387 100.82714844 6.22021484 C101.354375 6.86216797 101.88160156 7.50412109 102.42480469 8.16552734 C102.97007812 8.80232422 103.51535156 9.43912109 104.07714844 10.09521484 C107.2733742 15.07105661 107.74089538 19.87955254 107.76577759 25.69369507 C107.77156999 26.41752683 107.77736239 27.1413586 107.78333032 27.88712466 C107.80026978 30.30077213 107.80320156 32.71422768 107.80615234 35.12792969 C107.81545471 36.86278753 107.82562384 38.59764091 107.83659363 40.33248901 C107.86387293 45.03445364 107.87903693 49.73638833 107.89202166 54.43841124 C107.90766122 59.35518542 107.93444883 64.27189858 107.96005249 69.18862915 C108.00682562 78.49572257 108.04357685 87.80282749 108.07672536 97.10997832 C108.11495708 107.70729335 108.16436451 118.30454707 108.21470952 128.90181041 C108.3180076 150.6980041 108.40727494 172.49423661 108.48730469 194.29052734 C104.65348845 195.67339948 101.17365004 196.58622907 97.11230469 196.91552734 C96.23832031 196.99029297 95.36433594 197.06505859 94.46386719 197.14208984 C93.81160156 197.19107422 93.15933594 197.24005859 92.48730469 197.29052734 C92.48510485 195.91862889 92.48510485 195.91862889 92.48286057 194.51901531 C92.44584263 172.28625437 92.38689474 150.05364649 92.30340195 127.82100964 C92.26355711 117.06955394 92.23119234 106.31817201 92.21630859 95.56665039 C92.20332024 86.19790216 92.17642793 76.82931588 92.13269162 67.46065885 C92.11001324 62.49792189 92.09439781 57.53538516 92.09542084 52.57259178 C92.0961637 47.90464416 92.0783643 43.23714021 92.04613686 38.56930733 C92.03759474 36.85321448 92.03591696 35.13707212 92.041502 33.4209671 C92.04809908 31.08307329 92.03032719 28.74660899 92.00628662 26.40885925 C92.00259945 25.09899142 91.99891228 23.78912359 91.99511337 22.4395628 C91.78204428 19.2351269 91.78204428 19.2351269 89.64236832 17.3456316 C87.43815208 16.07066708 87.43815208 16.07066708 84.48730469 16.29052734 C83.13227696 17.99776184 83.13227696 17.99776184 81.99902344 20.27099609 C81.30969727 21.52299805 81.30969727 21.52299805 80.60644531 22.80029297 C79.66274414 24.56538751 78.72001268 26.33100089 77.77832031 28.09716797 C74.56331341 33.93247258 71.60319742 38.23258098 65.48730469 41.29052734 C63.92161686 41.4057309 62.35124019 41.4599977 60.78149414 41.48339844 C59.80320145 41.49946136 58.82490875 41.51552429 57.81697083 41.53207397 C53.33086825 41.57655426 48.84491429 41.61760731 44.35864258 41.640625 C41.99493551 41.65716463 39.63127805 41.68442796 37.26782227 41.72265625 C33.85764647 41.77753209 30.44864435 41.79931844 27.03808594 41.81396484 C25.98680008 41.83663422 24.93551422 41.85930359 23.85237122 41.88265991 C18.14905739 41.86630802 14.28326442 41.44006072 9.8473053 37.68707275 C7.95451506 35.74342104 6.5296798 33.78005704 5.17871094 31.42724609 C4.40043945 30.09790039 4.40043945 30.09790039 3.60644531 28.74169922 C3.09275391 27.8296875 2.5790625 26.91767578 2.04980469 25.97802734 C1.50904297 25.04667969 0.96828125 24.11533203 0.41113281 23.15576172 C-0.91063493 20.87483508 -2.2178919 18.58683263 -3.51269531 16.29052734 C-5.94986789 16.56087368 -5.94986789 16.56087368 -8.51269531 17.29052734 C-11.00392269 21.0273684 -10.76640119 22.95205799 -10.77339172 27.41990662 C-10.77721727 28.1506035 -10.78104282 28.88130038 -10.78498429 29.6341396 C-10.79532555 32.08925486 -10.79132006 34.54413675 -10.78735352 36.99926758 C-10.79169937 38.75674659 -10.79688209 40.51422371 -10.80284119 42.271698 C-10.81625602 47.05058341 -10.8168071 51.82938986 -10.81427789 56.60829043 C-10.81320986 60.59453695 -10.81808721 64.58076738 -10.82288331 68.56701046 C-10.83398708 77.96940913 -10.834411 87.37176786 -10.82836914 96.77416992 C-10.82232742 106.48139772 -10.83464342 116.18848063 -10.85593921 125.89568371 C-10.87353879 134.22356036 -10.87955917 142.55139083 -10.87630147 150.8792854 C-10.87448585 155.85597454 -10.87715248 160.83256036 -10.89101601 165.80923271 C-10.90356304 170.48860457 -10.90167997 175.16775012 -10.88860512 179.84711838 C-10.88623296 181.56604017 -10.88899682 183.28497773 -10.89722824 185.00388145 C-10.90764366 187.34757402 -10.89963762 189.6904999 -10.88691711 192.03416443 C-10.88708486 193.34658835 -10.8872526 194.65901228 -10.88742542 196.01120663 C-10.49231323 199.4688941 -9.99564978 200.89535153 -7.51269531 203.29052734 C-4.87903952 203.90835403 -4.87903952 203.90835403 -1.84790039 203.83642578 C-0.68692337 203.85614441 0.47405365 203.87586304 1.67021179 203.8961792 C3.55000481 203.89802216 3.55000481 203.89802216 5.46777344 203.89990234 C6.7508992 203.9164386 8.03402496 203.93297485 9.35603333 203.95001221 C12.7639961 203.99370962 16.1717014 204.01368956 19.57989502 204.02874756 C23.05895225 204.04831048 26.53773103 204.0902812 30.01660156 204.13037109 C36.84006437 204.20569835 43.66351697 204.25597435 50.48730469 204.29052734 C50.48730469 204.62052734 50.48730469 204.95052734 50.48730469 205.29052734 C42.08307711 206.75163643 33.67739467 208.20393308 25.26971054 209.64500523 C21.36572965 210.31442998 17.46232006 210.98687779 13.56005859 211.66625977 C9.79412474 212.32179232 6.02689875 212.96935023 2.2586441 213.61140251 C0.82125212 213.85775181 -0.61565116 214.10697031 -2.0520401 214.35910225 C-4.0639763 214.71175631 -6.07785555 215.05327021 -8.09179688 215.39428711 C-9.81055023 215.69073875 -9.81055023 215.69073875 -11.56402588 215.99317932 C-14.29682314 216.26875849 -15.97146091 216.25702176 -18.51269531 215.29052734 C-20.14550781 213.83740234 -20.14550781 213.83740234 -21.63769531 212.04052734 C-22.13527344 211.45787109 -22.63285156 210.87521484 -23.14550781 210.27490234 C-26.37029707 205.59435108 -26.80459115 201.24154411 -26.78012085 195.68180847 C-26.78465196 194.92364013 -26.78918308 194.1654718 -26.79385149 193.38432866 C-26.80649494 190.84803511 -26.80487517 188.31195631 -26.80322266 185.77563477 C-26.80920797 183.95538558 -26.81601352 182.13513894 -26.82357788 180.31489563 C-26.8412454 175.37264984 -26.8459336 170.43047331 -26.84720945 165.488199 C-26.84863125 162.39939069 -26.8529014 159.31059997 -26.85820389 156.22179604 C-26.87670705 145.44285591 -26.88487419 134.66396525 -26.88330078 123.88500977 C-26.88209949 113.84264461 -26.90319878 103.80049442 -26.93478811 93.75818366 C-26.96095404 85.1321166 -26.97166793 76.50611973 -26.97038996 67.88001329 C-26.9698804 62.72992637 -26.97556051 57.58003047 -26.99674606 52.42998314 C-27.01613356 47.58473227 -27.01624935 42.73985453 -27.0017128 37.89459038 C-26.9996242 36.1192902 -27.00432863 34.34396665 -27.01643372 32.56870651 C-27.03192578 30.13876778 -27.02255298 27.71010932 -27.00717163 25.28019714 C-27.01745876 24.58319409 -27.02774588 23.88619104 -27.03834474 23.16806668 C-26.9501615 16.83296851 -24.67716103 11.76051407 -20.54785156 7.04833984 C-19.896875 6.50951172 -19.24589844 5.97068359 -18.57519531 5.41552734 C-17.92679688 4.86123047 -17.27839844 4.30693359 -16.61035156 3.73583984 C-11.2216205 0.0229339 -6.33431684 -0.0064248 0 0 Z " fill="#2B4D66" transform="translate(113.5126953125,197.70947265625)"/>
<path d="M0 0 C0.14308594 0.89589844 0.28617188 1.79179687 0.43359375 2.71484375 C1.21224563 7.23102468 3.38165922 10.4331053 5.72265625 14.31640625 C7.1248138 17.26222349 7.4733737 18.7881849 7 22 C5.7578125 24.4296875 5.7578125 24.4296875 4.125 26.875 C-1.58457852 35.45315903 -2.02870578 44.98961122 -1 55 C0.47193582 61.52425607 3.33503478 66.7673679 7.0234375 72.27734375 C8.34329022 74.60556395 8.4752521 76.38611343 8 79 C7 80 7 80 3.64453125 80.19140625 C-1.79801501 80.11559807 -6.99135397 79.00433123 -12.3125 77.9375 C-24.67236182 75.54932331 -37.07056536 73.49024495 -49.5 71.5 C-61.19184293 69.62365538 -72.86832271 67.72503746 -84.5 65.5 C-95.75938443 63.34932111 -107.05795964 61.50316185 -118.375 59.6875 C-135.35322727 56.9617979 -152.28775391 54.03612433 -169.21240234 50.99658203 C-184.21822075 48.30335208 -199.24022015 45.71416487 -214.27197266 43.16992188 C-215.5044725 42.96102577 -215.5044725 42.96102577 -216.76187134 42.74790955 C-218.28483463 42.48995868 -219.80791753 42.23271249 -221.33114624 41.97633362 C-224.89987277 41.37243326 -228.45561397 40.73396029 -232 40 C-231.67 39.34 -231.34 38.68 -231 38 C-228.27558787 37.41155484 -225.61369246 36.95170378 -222.859375 36.5546875 C-221.58030273 36.35854858 -221.58030273 36.35854858 -220.27539062 36.15844727 C-218.41522692 35.87361596 -216.55447594 35.59260072 -214.6932373 35.31488037 C-209.66732139 34.56373409 -204.64615042 33.78227889 -199.625 33 C-198.06202179 32.75707718 -198.06202179 32.75707718 -196.46746826 32.50924683 C-185.53189044 30.79535241 -174.64120392 28.84845672 -163.75 26.875 C-150.77110509 24.52737148 -137.79188187 22.28165638 -124.75 20.3125 C-115.73559517 18.94938719 -106.79882634 17.42921878 -97.875 15.5625 C-86.92658833 13.27591957 -75.92927133 11.51634946 -64.8772583 9.82421875 C-54.76954981 8.27414166 -44.68895819 6.6190082 -34.625 4.8046875 C-33.59211853 4.61862442 -32.55923706 4.43256134 -31.49505615 4.24085999 C-26.41036174 3.32197087 -21.32783451 2.39226933 -16.24707031 1.4519043 C-14.39910711 1.11496976 -12.55112624 0.77813212 -10.703125 0.44140625 C-9.84976563 0.28030365 -8.99640625 0.11920105 -8.1171875 -0.04678345 C-2.22614677 -1.11307339 -2.22614677 -1.11307339 0 0 Z " fill="#E38D80" transform="translate(316,377)"/>
<path d="M0 0 C12.99093062 6.69229759 19.72488908 20.6800263 24 34 C24.77849651 37.35971313 25.12627214 40.46213754 25.13142776 43.90773106 C25.13526891 44.87518649 25.13911005 45.84264192 25.1430676 46.83941418 C25.14220112 47.89445721 25.14133463 48.94950025 25.14044189 50.03651428 C25.14341302 51.16346362 25.14638414 52.29041296 25.1494453 53.45151228 C25.15813192 57.23599288 25.15964053 61.02044185 25.16113281 64.80493164 C25.16522371 67.51523017 25.17076524 70.22552537 25.17617798 72.93582153 C25.18974956 80.3059292 25.19578447 87.67603141 25.20018864 95.04614949 C25.20295362 99.65128078 25.20719149 104.25640997 25.21169281 108.86153984 C25.22388502 121.62031071 25.23418373 134.37907991 25.2375679 147.13785648 C25.23789725 148.36235743 25.23789725 148.36235743 25.23823325 149.61159578 C25.23856067 150.83897765 25.23856067 150.83897765 25.2388947 152.09115511 C25.23933816 153.74916526 25.23978473 155.4071754 25.24023438 157.06518555 C25.2404558 157.88761061 25.24067723 158.71003566 25.24090537 159.5573827 C25.24485045 172.87326113 25.26229582 186.18908474 25.2855939 199.50494201 C25.30933931 213.18735057 25.32177124 226.86973166 25.32293582 240.55216116 C25.3238509 248.22973615 25.32956092 255.90723974 25.34775543 263.584795 C25.36319969 270.1247501 25.36825157 276.66461174 25.36001733 283.20458163 C25.35612571 286.53777937 25.35861786 289.87063708 25.37107468 293.20383644 C25.38381976 296.82758442 25.37790287 300.45085507 25.36749268 304.07460022 C25.37957728 305.63374219 25.37957728 305.63374219 25.39190602 307.22438198 C25.2786069 324.17167782 18.81655679 338.89302092 7 351 C-5.40237019 362.03004707 -19.1443156 367.37571299 -35.625 367.1953125 C-36.61250244 367.1924826 -37.60000488 367.18965271 -38.61743164 367.18673706 C-41.74508215 367.1756182 -44.87243728 367.15052916 -48 367.125 C-50.13150626 367.11495948 -52.26301704 367.10583551 -54.39453125 367.09765625 C-59.5964535 367.07570612 -64.79820564 367.04231207 -70 367 C-68.56683259 362.3920133 -66.73940708 358.97655867 -64 355 C-63.67 354.01 -63.34 353.02 -63 352 C-61.94723877 351.99589111 -60.89447754 351.99178223 -59.80981445 351.98754883 C-55.84140429 351.96550195 -51.87395021 351.91095637 -47.90600586 351.84741211 C-46.20037109 351.82445195 -44.49459897 351.80988892 -42.78881836 351.80444336 C-27.69875718 351.74683079 -15.4876063 349.74044491 -4 339 C-3.44828125 338.48953125 -2.8965625 337.9790625 -2.328125 337.453125 C4.85782277 329.97084948 9.11659191 319.23325649 9.13142776 308.92047787 C9.13718948 307.41181869 9.13718948 307.41181869 9.1430676 305.87268156 C9.14220112 304.77483809 9.14133463 303.67699463 9.14044189 302.54588318 C9.14341302 301.37401476 9.14638414 300.20214635 9.1494453 298.99476677 C9.15661698 295.74556914 9.15930395 292.49640375 9.16004276 289.24719942 C9.16189624 285.74122488 9.16944516 282.23526175 9.17617798 278.72929382 C9.18975106 271.06374097 9.19578469 263.39819336 9.20018864 255.73263049 C9.20295333 250.94323856 9.20719115 246.15384865 9.21169281 241.36445808 C9.22388515 228.09613262 9.23418388 214.82780876 9.2375679 201.55947781 C9.23778747 200.71050012 9.23800703 199.86152243 9.23823325 198.98681814 C9.23845153 198.13583913 9.23866981 197.28486012 9.2388947 196.40809387 C9.23933816 194.68376505 9.23978473 192.95943624 9.24023438 191.23510742 C9.2404558 190.3797856 9.24067723 189.52446378 9.24090537 188.64322311 C9.24485069 174.79385723 9.26229671 160.94454405 9.2855939 147.0951985 C9.3093364 132.86586402 9.32177111 118.63655595 9.32293582 104.40720135 C9.32385106 96.42222508 9.32956505 88.43731746 9.34775543 80.45236015 C9.36319573 73.65073178 9.36825387 66.84919325 9.36001733 60.04755067 C9.3561244 56.5807304 9.35697338 53.11409084 9.37107468 49.64729309 C9.38381222 45.87904206 9.37790688 42.11125056 9.36749268 38.34300232 C9.37554908 37.26077391 9.38360548 36.17854549 9.39190602 35.06352228 C9.32879465 25.25634873 7.53368885 16.02468426 2.8125 7.375 C0 2.16058394 0 2.16058394 0 0 Z " fill="#F1D334" transform="translate(418,21)"/>
<path d="M0 0 C1.53816628 -0.01429802 1.53816628 -0.01429802 3.10740662 -0.02888489 C4.77912682 -0.02751778 4.77912682 -0.02751778 6.48461914 -0.02612305 C7.63209122 -0.03040817 8.77956329 -0.0346933 9.96180725 -0.03910828 C12.39884786 -0.04486345 14.83590566 -0.04534316 17.27294922 -0.04101562 C20.97336969 -0.03788111 24.67297099 -0.06121184 28.37329102 -0.08666992 C30.74373272 -0.08894556 33.11417656 -0.08964519 35.48461914 -0.08862305 C37.12901222 -0.10243767 37.12901222 -0.10243767 38.80662537 -0.11653137 C51.83629365 -0.03951674 63.59886309 3.56437359 73.38696289 12.41918945 C83.10263274 23.05269908 85.87244889 33.92470652 85.42993164 47.88793945 C84.77365332 58.88942234 79.30514193 68.56617015 71.33227539 76.0246582 C63.87962664 82.10816505 54.88750366 86.39405215 45.08227539 86.2746582 C43.44677734 85.13989258 43.44677734 85.13989258 42.08227539 83.2746582 C41.6940918 80.5949707 41.6940918 80.5949707 41.68383789 77.3996582 C41.6799707 76.24981445 41.67610352 75.0999707 41.67211914 73.9152832 C41.6837207 72.71387695 41.69532227 71.5124707 41.70727539 70.2746582 C41.69567383 69.07325195 41.68407227 67.8718457 41.67211914 66.6340332 C41.67598633 65.48418945 41.67985352 64.3343457 41.68383789 63.1496582 C41.68722168 62.09520508 41.69060547 61.04075195 41.6940918 59.9543457 C42.08227539 57.2746582 42.08227539 57.2746582 43.41577148 55.49731445 C45.08227539 54.2746582 45.08227539 54.2746582 48.14477539 52.8371582 C51.05229097 51.53418046 51.05229097 51.53418046 52.45727539 49.5871582 C53.59878073 45.36358844 53.59878073 41.18572796 52.45727539 36.9621582 C49.87629106 33.79458652 46.6692797 32.45579755 42.63101196 31.99487305 C39.6389342 31.88156297 36.65851946 31.85981981 33.66430664 31.8684082 C32.02301033 31.85215393 32.02301033 31.85215393 30.34855652 31.83557129 C25.67951664 31.78974963 21.01053328 31.77818447 16.34130859 31.76342773 C12.92793756 31.74777986 9.51503723 31.7147994 6.10180664 31.6809082 C5.04242386 31.68392944 3.98304108 31.68695068 2.89155579 31.69006348 C1.91011093 31.67995239 0.92866608 31.66984131 -0.08251953 31.65942383 C-0.9460051 31.65736938 -1.80949066 31.65531494 -2.69914246 31.65319824 C-4.91772461 31.2746582 -4.91772461 31.2746582 -6.71992493 30.12561035 C-7.91772461 28.2746582 -7.91772461 28.2746582 -7.91772461 22.2746582 C-30.35772461 22.2746582 -52.79772461 22.2746582 -75.91772461 22.2746582 C-75.25772461 20.6246582 -74.59772461 18.9746582 -73.91772461 17.2746582 C-74.22665555 12.87239236 -74.92462084 10.26086575 -76.91772461 6.2746582 C-54.14772461 6.2746582 -31.37772461 6.2746582 -7.91772461 6.2746582 C-7.58772461 4.9546582 -7.25772461 3.6346582 -6.91772461 2.2746582 C-4.38619136 -0.25687505 -3.50677851 0.01787448 0 0 Z " fill="#3F6F92" transform="translate(426.917724609375,416.725341796875)"/>
<path d="M0 0 C2.53190454 0.34214926 4.50030053 0.66724575 6.64542103 2.09570026 C8.73801601 5.03752068 8.36826782 7.58176176 8.36076355 11.15629578 C8.36332682 11.88981492 8.3658901 12.62333407 8.36853105 13.37908107 C8.37348323 15.84368134 8.35695288 18.30767271 8.34057617 20.7722168 C8.33973021 22.53618353 8.34020444 24.30015132 8.34190369 26.06411743 C8.34276626 30.85933347 8.32509812 35.65432549 8.30418181 40.44948936 C8.28545866 45.45832424 8.28366802 50.46716396 8.28010559 55.47602844 C8.27077228 64.96391584 8.24614112 74.45169983 8.21605712 83.93954164 C8.18255309 94.73987483 8.16603717 105.54021291 8.15097082 116.34058511 C8.11959268 138.56044784 8.06680722 160.78021741 8 183 C2.9039853 183.85349805 -2.19405567 184.69328064 -7.29421806 185.5216341 C-9.02078312 185.80388756 -10.74679171 186.08957131 -12.47215843 186.37905979 C-28.09016707 188.99537863 -43.29570235 189.90438792 -59.13623047 189.72729492 C-62.55533028 189.69318345 -65.97005072 189.69744259 -69.38894844 189.72152996 C-72.72045435 189.73900988 -76.05130915 189.71783672 -79.3828125 189.69921875 C-80.59913361 189.70620285 -81.81545471 189.71318695 -83.06863403 189.72038269 C-84.18696625 189.7013942 -85.30529846 189.6824057 -86.45751953 189.6628418 C-87.43544464 189.65584763 -88.41336975 189.64885345 -89.42092896 189.64164734 C-92 189 -92 189 -94.33078003 186.91560364 C-96.42675012 183.25460141 -96.4066121 180.8768738 -96.25 176.6875 C-96.21390625 175.43324219 -96.1778125 174.17898438 -96.140625 172.88671875 C-96.09421875 171.93410156 -96.0478125 170.98148438 -96 170 C-95.07371796 169.99635437 -94.14743591 169.99270874 -93.19308472 169.98895264 C-84.4533501 169.95104784 -75.7139877 169.89416672 -66.97451591 169.81609726 C-62.48169391 169.77662891 -57.98906771 169.74443736 -53.49609375 169.72900391 C-49.15810775 169.71383297 -44.82066008 169.67938002 -40.48291397 169.63169098 C-38.83001516 169.61688162 -37.17703949 169.60895924 -35.52407455 169.60811615 C-33.20410882 169.60574329 -30.88562697 169.57864093 -28.56591797 169.54589844 C-27.24687469 169.53701599 -25.92783142 169.52813354 -24.56881714 169.51898193 C-19.41923117 168.77012258 -16.44602359 166.74356323 -13.14904785 162.76818848 C-11.61447058 159.07121527 -11.58376145 155.64542044 -11.61523438 151.70898438 C-11.6098616 150.88723221 -11.60448883 150.06548004 -11.59895325 149.21882629 C-11.58919264 147.44008227 -11.5862259 145.66129072 -11.58930969 143.88252258 C-11.59379402 141.06610442 -11.57977067 138.25031247 -11.56091309 135.43395996 C-11.52416255 129.45598343 -11.51042374 123.47807287 -11.5 117.5 C-11.48791917 110.57157369 -11.46638824 103.6434531 -11.41999817 96.71516418 C-11.4064279 93.9425964 -11.41059853 91.17041511 -11.41540527 88.39782715 C-11.40606427 86.69555163 -11.39589536 84.99328039 -11.38476562 83.29101562 C-11.39091385 82.52203445 -11.39706207 81.75305328 -11.40339661 80.96076965 C-11.35135868 76.42573941 -10.69549004 73.65242497 -8 70 C-5.70785253 67.20129061 -5.70785253 67.20129061 -6.125 64.125 C-6.77251751 60.92433884 -6.77251751 60.92433884 -8.99023438 58.78344727 C-11.46999663 55.34907294 -11.80000218 52.44222207 -12.03125 48.33984375 C-12.08064224 47.60091385 -12.13003448 46.86198395 -12.18092346 46.10066223 C-12.31998707 43.71322388 -12.41647282 41.32749657 -12.5 38.9375 C-12.53302216 38.12986206 -12.56604431 37.32222412 -12.60006714 36.4901123 C-13.08943888 21.73587562 -9.97320513 11.28713187 0 0 Z " fill="#6BBEF5" transform="translate(198,213)"/>
<path d="M0 0 C0.79124268 -0.00547852 1.58248535 -0.01095703 2.39770508 -0.01660156 C19.11442191 0.18432468 33.98612302 7.42405646 45.625 19.3125 C54.46291858 29.79044471 59.86963312 43.05732556 59.6875 56.75 C59.67626099 57.87293457 59.67626099 57.87293457 59.66479492 59.01855469 C59.56085095 64.35395803 59.14452909 69.22697584 57.4375 74.3125 C57.1075 75.33859375 56.7775 76.3646875 56.4375 77.421875 C53.84472732 84.82492331 50.72601864 90.53450076 45.4375 96.3125 C44.74527344 97.08464844 44.05304688 97.85679687 43.33984375 98.65234375 C34.85327596 107.64780626 25.52388413 112.61959659 13.4375 115.3125 C11.77103223 115.33824748 10.10389858 115.34239213 8.4375 115.3125 C8.44638245 115.93002136 8.45526489 116.54754272 8.4644165 117.18377686 C8.55286919 123.60744984 8.61322569 130.03095002 8.65722656 136.45507812 C8.67734936 138.85293606 8.70465059 141.25074488 8.73925781 143.6484375 C8.7877449 147.09387323 8.81046241 150.53866052 8.828125 153.984375 C8.84877014 155.05741882 8.86941528 156.13046265 8.89068604 157.23602295 C8.89113922 158.73712616 8.89113922 158.73712616 8.89160156 160.26855469 C8.90492523 161.58759796 8.90492523 161.58759796 8.91851807 162.93328857 C8.27387247 166.12183446 6.95145871 167.31448024 4.4375 169.3125 C1.4375 169.8125 1.4375 169.8125 -1.5625 169.3125 C-3.86525556 167.4454009 -5.24073871 165.95602259 -6.5625 163.3125 C-6.67874665 161.52174145 -6.73213378 159.72675024 -6.75537109 157.93237305 C-6.77143402 156.80747971 -6.78749695 155.68258636 -6.80404663 154.52360535 C-6.84841476 149.37683909 -6.89000102 144.23016199 -6.91259766 139.08325195 C-6.92593211 136.36611221 -6.95377382 133.6497244 -6.99462891 130.93286133 C-7.05344168 127.0216677 -7.07125963 123.11083948 -7.0859375 119.19921875 C-7.10860687 117.98449387 -7.13127625 116.76976898 -7.15463257 115.51823425 C-7.13106054 106.13627563 -7.13106054 106.13627563 -4.23461914 103.04956055 C-0.89299173 100.87727375 1.40876124 100.64914561 5.375 100.4375 C16.28414564 99.44759854 26.29898292 94.84430854 33.7578125 86.6171875 C41.98729599 75.32557062 44.76754788 63.07605827 43.4375 49.3125 C41.34654303 38.81801341 34.99137179 29.55510726 26.375 23.3125 C15.2776756 16.19795767 3.47551296 14.82992085 -9.4453125 16.73828125 C-20.4420618 19.62006603 -29.22210141 26.39923863 -35.18359375 35.89453125 C-39.05436468 42.8285022 -40.40276959 49.1472936 -40.9453125 56.96484375 C-41.66026291 60.84277096 -42.74546498 62.5869932 -45.5625 65.3125 C-49.0625 65.875 -49.0625 65.875 -52.5625 65.3125 C-55.23681433 63.2483679 -56.41729161 62.07169978 -57.05859375 58.71875 C-56.72785923 42.31431789 -51.38305917 28.50546675 -39.953125 16.53125 C-33.9560354 10.9653237 -27.11558297 6.46814008 -19.5625 3.3125 C-18.88574219 3.0134375 -18.20898438 2.714375 -17.51171875 2.40625 C-11.72297589 0.24671899 -6.10907769 0.03076727 0 0 Z " fill="#F2EEEF" transform="translate(257.5625,84.6875)"/>
<path d="M0 0 C29.04 0 58.08 0 88 0 C76.66253013 22.67493974 76.66253013 22.67493974 69 26 C65.2402765 26.59531127 61.52339684 26.58451911 57.72265625 26.56640625 C56.6379454 26.57260483 55.55323456 26.57880341 54.43565369 26.58518982 C52.14697159 26.59227794 49.85823783 26.58913168 47.56958008 26.57641602 C44.07731737 26.56255879 40.58773945 26.59662953 37.09570312 26.63476562 C34.86718685 26.63571697 32.63866723 26.63385719 30.41015625 26.62890625 C29.37141861 26.64216446 28.33268097 26.65542267 27.26246643 26.66908264 C20.79340503 26.58644689 16.61384007 25.70059489 12 21 C10.10375977 18.61230469 10.10375977 18.61230469 8.69140625 16.171875 C8.17255859 15.29015625 7.65371094 14.4084375 7.11914062 13.5 C6.60544922 12.5925 6.09175781 11.685 5.5625 10.75 C5.02173828 9.82703125 4.48097656 8.9040625 3.92382812 7.953125 C0 1.20672013 0 1.20672013 0 0 Z " fill="#407093" transform="translate(110,213)"/>
<path d="M0 0 C9.93829487 2.89927035 16.48888853 9.46749807 21.59375 18.3046875 C22.0578125 19.19414062 22.521875 20.08359375 23 21 C23.54140625 22.02480469 23.54140625 22.02480469 24.09375 23.0703125 C27.89898724 32.05490042 27.44778726 44.94699302 24.375 54.0625 C19.41171567 65.39475409 12.01536833 73.72199478 0.73046875 78.98828125 C-3.98488536 80.73545824 -8.94894008 82.06150453 -14 82 C-15.8359375 80.79296875 -15.8359375 80.79296875 -17 79 C-17.39078556 76.27492202 -17.13616953 73.76878044 -17 71 C-16.23816406 70.67128906 -15.47632813 70.34257812 -14.69140625 70.00390625 C-0.62015576 63.52164479 5.80026351 54.69023833 11.375 40.5 C13.36574704 29.35181656 12.09311008 18.45992755 5.953125 8.76953125 C4.54157836 6.83491147 3.09613188 4.92431251 1.609375 3.046875 C0 1 0 1 0 0 Z " fill="#365E7D" transform="translate(486,421)"/>
<path d="M0 0 C8.97920777 -0.02312566 17.95840537 -0.04091623 26.93763638 -0.05181217 C31.10662828 -0.05704051 35.27559987 -0.06413726 39.44458008 -0.07543945 C43.46457686 -0.08627008 47.48455405 -0.09227721 51.50456429 -0.09487724 C53.04162975 -0.09673118 54.57869409 -0.10035119 56.11575127 -0.10573006 C58.26135487 -0.11294284 60.40687655 -0.11399084 62.55249023 -0.11352539 C63.77604721 -0.115746 64.99960419 -0.11796661 66.26023865 -0.12025452 C69 0 69 0 70 1 C70 5.95 70 10.9 70 16 C47.23 16 24.46 16 1 16 C1.66 14.35 2.32 12.7 3 11 C2.70494206 6.79542435 1.96901652 3.68787111 0 0 Z " fill="#2B4D66" transform="translate(350,423)"/>
<path d="M0 0 C36.3 0 72.6 0 110 0 C110 0.33 110 0.66 110 1 C107.12894554 1.51324142 104.25784624 2.02622989 101.38671875 2.5390625 C100.03101273 2.78135086 100.03101273 2.78135086 98.6479187 3.02853394 C93.59629415 3.93047356 88.54387209 4.82758745 83.48999023 5.71679688 C81.40215757 6.08450244 79.31434839 6.45234144 77.2265625 6.8203125 C76.1830513 7.00422546 75.1395401 7.18813843 74.06440735 7.37762451 C68.55314595 8.35389664 63.04999991 9.36088602 57.55508423 10.42529297 C38.08731053 14.19568504 19.85813753 15.78559665 0 15 C0 10.05 0 5.1 0 0 Z " fill="#F0D234" transform="translate(221,373)"/>
<path d="M0 0 C1.22096375 0.00007553 2.44192749 0.00015106 3.69989014 0.00022888 C5.67037323 0.00797081 5.67037323 0.00797081 7.68066406 0.01586914 C9.04258167 0.01773518 10.40449994 0.01915821 11.76641846 0.02015686 C15.34370795 0.02396736 18.92095658 0.03378507 22.49822998 0.04486084 C26.15148363 0.05510655 29.80474392 0.05966124 33.45800781 0.06469727 C40.62078682 0.0754087 47.78353221 0.09246745 54.94628906 0.11352539 C54.78402832 0.73227539 54.62176758 1.35102539 54.45458984 1.98852539 C53.94651054 4.11259949 53.812779 5.93494812 53.82128906 8.11352539 C53.81871094 8.77352539 53.81613281 9.43352539 53.81347656 10.11352539 C53.95310188 12.21611845 54.4128919 14.07951834 54.94628906 16.11352539 C46.67084075 16.18305328 38.39551459 16.23635058 30.11984634 16.26896191 C26.2770582 16.28461418 22.43446997 16.30584412 18.59179688 16.33984375 C14.88299343 16.37245334 11.17438222 16.3903817 7.46544647 16.39815712 C6.05084965 16.4036978 4.63626328 16.41451751 3.22174835 16.43071556 C1.23973359 16.4525084 -0.74247483 16.45375095 -2.72460938 16.45410156 C-3.85268005 16.4607634 -4.98075073 16.46742523 -6.14300537 16.47428894 C-9.37861176 16.07325599 -10.75138368 15.38494158 -13.05371094 13.11352539 C-13.54980469 10.95727539 -13.54980469 10.95727539 -13.49121094 8.61352539 C-13.48992188 7.84008789 -13.48863281 7.06665039 -13.48730469 6.26977539 C-12.94979188 3.59673874 -12.22751673 2.73032426 -10.05371094 1.11352539 C-6.68938215 -0.0011987 -3.52623238 -0.0072856 0 0 Z " fill="#2B4C66" transform="translate(13.0537109375,422.886474609375)"/>
<path d="M0 0 C0.74636719 -0.01095703 1.49273437 -0.02191406 2.26171875 -0.03320312 C5.86856935 0.01467542 8.2094086 0.42269788 11.49609375 2.00390625 C14.51540227 5.85896879 14.19535447 9.30128301 14.0625 14.0625 C14.07345703 14.91714844 14.08441406 15.77179688 14.09570312 16.65234375 C14.02295951 22.86949845 14.02295951 22.86949845 11.58984375 26.09375 C7.80317293 28.75503641 4.69759699 28.81050862 0.1875 28.875 C-1.12863281 28.91238281 -2.44476563 28.94976562 -3.80078125 28.98828125 C-8.00222832 28.50469336 -9.56376487 27.53178843 -12.5 24.5625 C-14.12169093 21.31911813 -13.80955934 17.81056679 -13.875 14.25 C-13.93107422 13.11014648 -13.93107422 13.11014648 -13.98828125 11.94726562 C-14.05150426 7.90450558 -13.79540582 6.00850486 -11.5078125 2.5546875 C-7.52202227 -0.08525148 -4.67571123 -0.14939665 0 0 Z " fill="#E28F83" transform="translate(134.5,263.4375)"/>
<path d="M0 0 C2.765625 1.79296875 2.765625 1.79296875 5.25 4.1875 C6.08015625 4.96480469 6.9103125 5.74210937 7.765625 6.54296875 C12.99548075 12.29398145 12.99548075 12.29398145 13.0078125 16.94921875 C11.74976056 20.75750776 9.6921854 23.08147851 6.875 25.8125 C6.41351563 26.30169922 5.95203125 26.79089844 5.4765625 27.29492188 C2.87514006 29.8784774 0.93230654 31.0191212 -2.609375 32.01953125 C-6.48079429 31.99723045 -7.44112006 31.55887994 -10.125 28.875 C-10.78757813 28.22144531 -11.45015625 27.56789063 -12.1328125 26.89453125 C-13.05707031 25.95673828 -13.05707031 25.95673828 -14 25 C-14.99 24.195625 -15.98 23.39125 -17 22.5625 C-19.28052077 19.64058276 -19.51382359 17.76565288 -19.41455078 14.10131836 C-18.65722013 10.26248152 -16.21563582 8.09601726 -13.4375 5.5 C-12.66696289 4.695625 -12.66696289 4.695625 -11.88085938 3.875 C-8.08611157 0.17924561 -5.45297569 -0.96375283 0 0 Z " fill="#F4E167" transform="translate(180,262)"/>
<path d="M0 0 C1.04800781 -0.00386719 1.04800781 -0.00386719 2.1171875 -0.0078125 C6.96607421 0.08367593 10.51801607 1.01801607 14 4.5 C14.30529612 7.59464993 14.27834765 10.70463583 14.3125 13.8125 C14.34150391 14.68068359 14.37050781 15.54886719 14.40039062 16.44335938 C14.43780433 20.19336335 14.41370192 22.75420311 12.57421875 26.0703125 C8.62119301 28.26577141 4.94959722 28.11954612 0.5 28.0625 C-0.35464844 28.08634766 -1.20929688 28.11019531 -2.08984375 28.13476562 C-6.15356478 28.12525614 -8.29687581 28.05069116 -11.55859375 25.49609375 C-13.46266889 21.5383007 -13.62620923 18.33972271 -13.5625 14 C-13.58634766 13.25363281 -13.61019531 12.50726563 -13.63476562 11.73828125 C-13.62416105 7.74389201 -13.26138964 5.88531142 -10.96484375 2.5 C-7.25556022 -0.00217809 -4.32226127 -0.17544234 0 0 Z " fill="#E1DEE2" transform="translate(134,345.5)"/>
<path d="M0 0 C7.92 0 15.84 0 24 0 C13.58395891 21.84828131 13.58395891 21.84828131 5 26 C0.69531872 26.47614864 -3.551043 26.37688813 -7.875 26.25 C-9.0403125 26.23195312 -10.205625 26.21390625 -11.40625 26.1953125 C-14.27168249 26.1483382 -17.13541168 26.08266293 -20 26 C-17 24 -17 24 -14.4375 23.125 C-11.46581987 21.75345533 -11.31587736 20.90511681 -10 18 C-9.21347162 16.55305611 -8.41873638 15.11055248 -7.6171875 13.671875 C-7.21612793 12.9509668 -6.81506836 12.23005859 -6.40185547 11.48730469 C-5.64606201 10.13233887 -5.64606201 10.13233887 -4.875 8.75 C-3.26625 5.8625 -1.6575 2.975 0 0 Z " fill="#365E7D" transform="translate(174,213)"/>
<path d="M0 0 C3.60250698 1.38900785 6.35803369 3.27519932 8.9375 6.1875 C10.45597309 10.2069876 10.6731919 13.75889103 10 18 C7.80873223 22.38253554 5.58325461 25.16669816 1 27 C-3.70665253 27.70599788 -7.0588127 27.45316426 -11.375 25.375 C-15.34649089 21.78174634 -16.77501477 18.79988182 -17.4375 13.5 C-16.74645309 7.9716247 -14.37443276 5.16063211 -10.1875 1.625 C-6.33997539 -0.33648313 -4.27096387 -0.59943353 0 0 Z " fill="#78D0B2" transform="translate(138,305)"/>
<path d="M0 0 C2.375 1.5625 2.375 1.5625 4 4 C4.80730018 8.01178761 4.61584485 10.97359191 2.5 14.5 C-1.03588973 16.62153384 -3.97901723 16.791013 -8 16 C-10.5 14.5 -10.5 14.5 -12 12 C-12.54719708 9.21841484 -12.58180519 6.7778346 -12 4 C-8.34417575 -0.75257152 -5.74337249 -1.49327685 0 0 Z " fill="#F0EDEE" transform="translate(263,283)"/>
<path d="M0 0 C4 2 4 2 5.3125 3.75 C6.28307319 6.92642136 5.98874457 8.83601738 5 12 C3.35 13.32 1.7 14.64 0 16 C0 10.72 0 5.44 0 0 Z " fill="#EDD33E" transform="translate(187,270)"/>
<path d="M0 0 C3.7910119 1.44950455 7.3874638 3.15172566 11 5 C11 7.31 11 9.62 11 12 C2.63371151 4.94975689 2.63371151 4.94975689 0 2 C0 1.34 0 0.68 0 0 Z " fill="#F2D53B" transform="translate(76,363)"/>
</svg>
